{"glyphs":{"0":{"ha":772,"x_min":39,"x_max":733,"o":"m 386 972 q 528 942 465 972 q 628 863 590 911 q 690 747 665 814 q 724 615 715 681 q 733 476 733 549 q 717 302 733 383 q 664 144 701 221 q 555 24 626 68 q 383 -21 483 -21 q 128 103 217 -21 q 39 461 39 228 q 55 637 39 554 q 107 799 71 719 q 215 925 143 878 q 386 972 286 972 m 386 919 q 172 798 249 919 q 96 458 96 676 q 103 342 96 397 q 129 227 110 286 q 180 126 149 168 q 263 56 211 83 q 383 29 315 29 q 529 71 468 29 q 620 183 590 113 q 663 324 650 253 q 675 475 675 396 q 663 625 675 554 q 622 766 651 696 q 531 878 592 836 q 386 919 471 919 z "},"1":{"ha":772,"x_min":150,"x_max":463,"o":"m 463 956 l 463 0 l 404 0 l 404 853 q 289 767 344 793 q 150 731 233 740 l 150 778 q 299 834 246 799 q 413 956 353 869 l 463 956 z "},"2":{"ha":772,"x_min":64,"x_max":701,"o":"m 701 51 l 701 0 l 64 0 q 130 181 72 107 q 294 326 188 254 l 381 385 q 451 435 428 418 q 515 487 475 451 q 576 551 556 522 q 613 621 596 579 q 629 707 629 663 q 565 864 629 806 q 392 922 501 922 q 203 844 263 922 q 140 633 143 765 l 83 633 q 85 663 85 646 q 171 888 90 804 q 394 972 251 972 q 607 900 528 972 q 686 708 686 828 q 643 552 686 619 q 519 421 600 485 q 353 301 461 375 q 278 249 297 264 q 217 199 258 235 q 156 129 176 164 q 128 51 136 94 l 701 51 z "},"3":{"ha":772,"x_min":50,"x_max":713,"o":"m 75 654 q 161 888 78 804 q 392 972 244 972 q 606 904 525 972 q 688 725 688 836 q 633 579 688 638 q 496 511 578 521 q 652 435 592 496 q 713 271 713 375 q 622 60 713 140 q 383 -21 531 -21 q 140 63 231 -21 q 50 288 50 146 l 50 315 l 104 315 l 104 296 q 178 100 104 171 q 385 29 253 29 q 580 95 504 29 q 656 265 656 161 q 365 485 656 485 l 333 485 l 333 532 l 372 532 q 563 581 496 532 q 631 724 631 631 q 565 868 631 814 q 390 922 500 922 q 199 853 267 922 q 126 654 131 785 l 75 654 z "},"4":{"ha":772,"x_min":44,"x_max":719,"o":"m 719 293 l 719 244 l 563 244 l 563 0 l 507 0 l 507 244 l 44 244 l 44 301 l 507 958 l 563 958 l 563 293 l 719 293 m 507 293 l 507 769 q 508 890 507 838 q 442 788 449 797 l 93 293 l 507 293 z "},"5":{"ha":772,"x_min":51,"x_max":707,"o":"m 664 951 l 664 899 l 219 899 l 140 524 q 383 640 225 640 q 615 547 524 640 q 707 311 707 454 q 613 74 707 168 q 376 -21 519 -21 q 142 63 229 -21 q 51 290 54 147 l 106 290 q 180 100 110 172 q 376 28 250 28 q 573 108 496 28 q 650 310 650 188 q 572 512 650 432 q 375 592 494 592 q 135 461 219 592 l 81 463 l 179 951 l 664 951 z "},"6":{"ha":772,"x_min":60,"x_max":722,"o":"m 703 719 l 646 719 q 568 866 635 808 q 407 924 501 924 q 278 890 333 924 q 192 805 224 856 q 142 683 161 754 q 118 551 124 611 q 113 424 113 490 q 224 576 147 521 q 406 631 300 631 q 632 538 542 631 q 722 307 722 446 q 629 73 722 167 q 396 -21 536 -21 q 128 121 218 -21 q 60 442 60 228 q 150 835 60 699 q 408 972 240 972 q 608 903 529 972 q 703 719 688 833 m 394 582 q 205 503 282 582 q 128 307 128 424 q 205 108 128 189 q 397 28 282 28 q 589 108 513 28 q 665 306 665 188 q 588 503 665 425 q 394 582 511 582 z "},"7":{"ha":772,"x_min":78,"x_max":693,"o":"m 693 951 l 693 896 q 400 473 510 715 q 283 0 290 231 l 224 0 q 346 485 229 233 q 642 899 463 736 l 78 899 l 78 951 l 693 951 z "},"8":{"ha":772,"x_min":49,"x_max":722,"o":"m 268 518 q 89 731 89 560 q 169 908 89 843 q 386 972 249 972 q 604 909 525 972 q 683 733 683 846 q 634 592 683 649 q 506 518 585 536 q 663 440 603 504 q 722 272 722 375 q 633 58 722 136 q 389 -21 544 -21 q 140 56 231 -21 q 49 267 49 133 q 110 437 49 371 q 268 518 171 503 m 385 922 q 208 872 271 922 q 146 729 146 821 q 210 590 146 640 q 388 540 275 540 q 563 591 499 540 q 626 731 626 642 q 563 872 626 822 q 385 922 500 922 m 383 494 q 181 434 254 494 q 107 268 107 374 q 181 92 107 156 q 388 28 256 28 q 590 92 517 28 q 664 268 664 157 q 590 435 664 375 q 383 494 515 494 z "},"9":{"ha":772,"x_min":47,"x_max":713,"o":"m 74 226 l 129 226 q 210 83 144 136 q 371 29 276 29 q 584 147 510 29 q 658 483 658 264 l 658 536 q 367 322 576 322 q 138 414 229 322 q 47 644 47 506 q 140 878 47 785 q 371 972 232 972 q 638 838 546 972 q 713 504 713 726 q 369 -21 713 -21 q 169 47 250 -21 q 74 226 88 114 m 371 922 q 181 843 258 922 q 104 646 104 764 q 181 450 104 528 q 372 372 257 372 q 565 451 488 372 q 642 647 642 529 q 564 843 642 764 q 371 922 486 922 z "}," ":{"ha":386,"x_min":0,"x_max":0,"o":""},"!":{"ha":360,"x_min":147,"x_max":213,"o":"m 210 989 l 210 711 l 200 250 l 160 250 l 150 711 l 150 989 l 210 989 m 213 136 l 213 0 l 147 0 l 147 136 l 213 136 z "},"\"":{"ha":438,"x_min":94,"x_max":342,"o":"m 142 569 l 101 569 l 94 951 l 149 951 l 142 569 m 335 569 l 294 569 l 288 951 l 342 951 l 335 569 z "},"#":{"ha":772,"x_min":24,"x_max":742,"o":"m 188 0 l 138 0 l 193 300 l 24 300 l 24 347 l 201 347 l 249 606 l 81 606 l 81 651 l 258 651 l 315 951 l 365 951 l 307 651 l 524 651 l 582 951 l 631 951 l 574 651 l 742 651 l 742 606 l 564 606 l 517 347 l 685 347 l 685 300 l 508 300 l 453 0 l 403 0 l 458 300 l 242 300 l 188 0 m 467 347 l 515 606 l 299 606 l 251 347 l 467 347 z "},"$":{"ha":772,"x_min":22,"x_max":736,"o":"m 399 1078 l 399 974 l 401 974 q 622 904 543 974 q 701 710 701 835 l 701 699 l 646 699 q 586 866 646 811 q 399 926 526 921 l 399 515 q 736 246 736 468 q 645 51 736 124 q 401 -22 554 -22 l 399 -22 l 399 -144 l 360 -144 l 360 -22 q 22 278 22 -15 l 22 290 l 79 290 q 78 280 79 286 q 78 272 78 274 q 151 88 78 144 q 360 25 225 32 l 360 469 q 251 496 296 482 q 159 537 207 510 q 86 610 111 564 q 61 721 61 657 q 143 901 61 832 q 360 974 225 971 l 360 1078 l 399 1078 m 360 524 l 360 925 q 181 867 246 919 q 117 725 117 814 q 360 524 117 553 m 399 461 l 399 25 q 600 80 521 28 q 679 247 679 132 q 661 327 679 292 q 619 383 643 363 q 551 420 594 403 q 478 444 508 438 q 399 461 449 451 z "},"%":{"ha":1081,"x_min":61,"x_max":1026,"o":"m 868 986 l 253 -33 l 203 -33 l 819 986 l 868 986 m 800 474 q 962 405 897 474 q 1026 232 1026 336 q 963 51 1026 121 q 799 -19 900 -19 q 634 49 697 -19 q 571 226 571 118 q 636 403 571 333 q 800 474 701 474 m 289 972 q 453 904 389 972 q 517 729 517 836 q 453 550 517 619 q 289 481 389 481 q 124 549 188 481 q 61 728 61 618 q 126 903 61 833 q 289 972 190 972 m 796 431 q 672 373 722 431 q 621 231 621 315 q 672 81 621 139 q 800 22 722 22 q 926 81 875 22 q 976 228 976 140 q 925 373 976 315 q 796 431 874 431 m 288 929 q 161 872 211 929 q 111 728 111 815 q 161 580 111 638 q 289 522 211 522 q 416 581 365 522 q 467 729 467 640 q 416 873 467 817 q 288 929 365 929 z "},"&":{"ha":824,"x_min":57,"x_max":828,"o":"m 717 408 q 665 197 713 299 l 828 0 l 757 0 l 636 149 q 349 -19 532 -19 q 139 53 221 -19 q 57 238 57 125 q 79 338 57 290 q 144 424 101 385 q 224 490 186 464 q 315 546 261 515 q 268 602 282 585 q 228 657 254 619 q 192 727 203 694 q 181 792 181 760 q 240 929 181 876 q 394 982 300 982 q 542 929 483 982 q 600 796 600 876 q 583 712 600 750 q 529 638 567 674 q 467 585 492 603 q 393 533 443 567 l 629 240 q 664 408 660 325 l 717 408 m 363 571 q 546 792 546 674 q 501 894 546 853 q 392 935 457 935 q 278 894 324 935 q 233 793 233 854 q 259 713 233 760 q 304 640 285 665 q 363 571 324 615 m 346 507 q 265 457 296 478 q 194 401 233 436 q 134 326 154 367 q 114 238 114 285 q 182 87 114 147 q 351 26 250 26 q 495 69 429 26 q 604 189 561 113 l 346 507 z "},"'":{"ha":283,"x_min":114,"x_max":168,"o":"m 161 569 l 121 569 l 114 951 l 168 951 l 161 569 z "},"(":{"ha":335,"x_min":94,"x_max":321,"o":"m 321 1000 q 195 700 240 867 q 150 368 150 533 q 321 -256 150 54 l 272 -256 q 94 372 94 57 q 272 1000 94 697 l 321 1000 z "},")":{"ha":335,"x_min":14,"x_max":240,"o":"m 240 372 q 63 -256 240 57 l 14 -256 q 185 368 185 54 q 140 700 185 533 q 14 1000 94 867 l 63 1000 q 240 372 240 697 z "},"*":{"ha":489,"x_min":40,"x_max":449,"o":"m 449 849 l 275 792 l 383 646 l 351 622 l 244 768 l 133 625 l 100 649 l 211 792 l 40 849 l 53 886 l 224 828 l 224 1008 l 264 1008 l 264 828 l 435 886 l 449 849 z "},"+":{"ha":833,"x_min":78,"x_max":757,"o":"m 393 40 l 393 353 l 78 353 l 78 399 l 393 399 l 393 710 l 442 710 l 442 399 l 757 399 l 757 353 l 442 353 l 442 40 l 393 40 z "},",":{"ha":386,"x_min":139,"x_max":228,"o":"m 228 142 l 228 24 q 210 -103 228 -51 q 139 -178 193 -154 l 139 -131 q 186 0 185 -101 l 158 0 l 158 142 l 228 142 z "},"-":{"ha":489,"x_min":96,"x_max":393,"o":"m 393 403 l 393 349 l 96 349 l 96 403 l 393 403 z "},".":{"ha":386,"x_min":158,"x_max":228,"o":"m 228 142 l 228 0 l 158 0 l 158 142 l 228 142 z "},"/":{"ha":463,"x_min":-14,"x_max":478,"o":"m 478 997 l 36 -12 l -14 -12 l 429 997 l 478 997 z "},":":{"ha":386,"x_min":158,"x_max":228,"o":"m 228 142 l 228 0 l 158 0 l 158 142 l 228 142 m 228 711 l 228 569 l 158 569 l 158 711 l 228 711 z "},";":{"ha":386,"x_min":139,"x_max":228,"o":"m 228 142 l 228 24 q 210 -103 228 -51 q 139 -178 193 -154 l 139 -131 q 186 0 185 -101 l 158 0 l 158 142 l 228 142 m 228 711 l 228 569 l 158 569 l 158 711 l 228 711 z "},"<":{"ha":833,"x_min":76,"x_max":756,"o":"m 76 350 l 76 400 l 756 682 l 756 632 l 135 375 l 756 121 l 756 69 l 76 350 z "},"=":{"ha":833,"x_min":76,"x_max":756,"o":"m 76 476 l 76 522 l 756 522 l 756 476 l 76 476 m 76 222 l 76 268 l 756 268 l 756 222 l 76 222 z "},">":{"ha":833,"x_min":78,"x_max":757,"o":"m 757 350 l 78 69 l 78 121 l 700 375 l 78 632 l 78 682 l 757 400 l 757 350 z "},"?":{"ha":721,"x_min":60,"x_max":644,"o":"m 60 682 q 136 916 60 822 q 361 1010 213 1010 q 566 940 488 1010 q 644 761 644 871 q 633 678 644 715 q 591 601 622 640 q 542 545 560 563 q 476 483 525 528 q 397 386 413 424 q 382 249 382 349 l 328 249 l 328 264 q 349 407 328 360 q 440 519 371 454 q 513 590 489 565 q 562 663 536 615 q 588 760 588 711 q 524 903 588 847 q 360 960 460 960 q 174 878 236 960 q 114 682 113 797 l 60 682 m 386 142 l 386 0 l 322 0 l 322 142 l 386 142 z "},"@":{"ha":1111,"x_min":38,"x_max":1068,"o":"m 983 153 l 1004 125 q 800 17 899 51 q 579 -18 701 -18 q 194 117 350 -18 q 38 475 38 253 q 205 858 38 710 q 606 1006 372 1006 q 935 895 801 1006 q 1068 597 1068 785 q 990 352 1068 467 q 789 238 913 238 q 717 263 746 238 q 688 329 688 288 q 699 393 688 338 q 490 238 625 238 q 354 297 403 238 q 306 443 306 356 q 385 667 306 563 q 579 772 464 772 q 701 728 656 772 q 751 611 747 685 l 794 754 l 843 754 l 761 489 q 726 336 726 369 q 747 290 726 306 q 800 274 768 274 q 924 330 869 274 q 1005 459 979 386 q 1031 599 1031 532 q 906 871 1031 774 q 604 968 781 968 q 230 828 385 968 q 75 475 75 689 q 147 230 75 336 q 331 71 218 124 q 579 18 444 18 q 787 51 694 18 q 983 153 879 83 m 725 586 q 688 694 725 651 q 586 736 651 736 q 425 640 490 736 q 360 440 360 543 q 396 322 360 369 q 500 275 432 275 q 626 334 575 275 q 706 476 678 393 q 725 586 725 539 z "},"A":{"ha":824,"x_min":-18,"x_max":840,"o":"m 447 989 l 840 0 l 774 0 l 650 319 l 174 319 l 47 0 l -18 0 l 383 989 l 447 989 m 631 369 l 450 828 q 431 881 443 844 q 414 932 419 917 l 376 832 l 192 369 l 631 369 z "},"B":{"ha":875,"x_min":86,"x_max":829,"o":"m 86 989 l 493 989 q 708 926 621 989 q 796 743 796 864 q 744 595 796 657 q 606 518 692 533 q 767 442 706 507 q 829 275 829 376 q 714 56 829 132 q 468 0 629 0 l 86 0 l 86 989 m 146 938 l 146 538 l 457 538 q 736 736 736 538 q 663 890 736 842 q 476 938 590 938 l 146 938 m 146 488 l 146 53 l 464 53 q 769 276 769 53 q 472 488 769 488 l 146 488 z "},"C":{"ha":978,"x_min":54,"x_max":935,"o":"m 935 383 q 803 90 921 203 q 507 -22 685 -22 q 178 119 303 -22 q 54 492 54 260 q 181 869 54 725 q 514 1013 308 1013 q 783 924 664 1013 q 919 692 903 836 l 861 692 q 740 887 835 815 q 511 958 646 958 q 224 830 333 958 q 114 493 114 701 q 222 158 114 285 q 508 31 331 31 q 763 129 665 31 q 878 383 860 228 l 935 383 z "},"D":{"ha":926,"x_min":89,"x_max":872,"o":"m 89 989 l 422 989 q 757 861 642 989 q 872 510 872 733 q 762 140 872 279 q 424 0 651 0 l 89 0 l 89 989 m 149 936 l 149 53 l 403 53 q 813 506 813 53 q 715 821 813 706 q 419 936 618 936 l 149 936 z "},"E":{"ha":778,"x_min":81,"x_max":753,"o":"m 747 989 l 747 936 l 140 936 l 140 540 l 710 540 l 710 488 l 140 488 l 140 53 l 753 53 l 753 0 l 81 0 l 81 989 l 747 989 z "},"F":{"ha":714,"x_min":97,"x_max":719,"o":"m 719 989 l 719 936 l 157 936 l 157 539 l 663 539 l 663 488 l 157 488 l 157 0 l 97 0 l 97 989 l 719 989 z "},"G":{"ha":1029,"x_min":53,"x_max":949,"o":"m 949 483 l 949 0 l 906 0 l 897 176 l 899 240 q 755 47 860 115 q 519 -22 650 -22 q 182 118 311 -22 q 53 483 53 258 q 182 864 53 718 q 519 1010 311 1010 q 793 919 676 1010 q 932 682 910 829 l 875 682 q 750 883 849 808 q 519 957 651 957 q 224 827 335 957 q 113 483 113 697 q 224 154 113 279 q 521 29 336 29 q 793 135 690 29 q 896 417 896 242 l 896 433 l 531 433 l 531 483 l 949 483 z "},"H":{"ha":931,"x_min":89,"x_max":843,"o":"m 843 989 l 843 0 l 783 0 l 783 490 l 149 490 l 149 0 l 89 0 l 89 989 l 149 989 l 149 543 l 783 543 l 783 989 l 843 989 z "},"I":{"ha":236,"x_min":89,"x_max":149,"o":"m 149 989 l 149 0 l 89 0 l 89 989 l 149 989 z "},"J":{"ha":668,"x_min":32,"x_max":582,"o":"m 582 989 l 582 268 q 308 -22 582 -22 q 97 53 161 -22 q 32 275 32 128 q 33 313 32 294 l 90 313 l 90 283 q 137 92 90 156 q 308 29 183 29 q 475 92 428 29 q 522 272 522 154 l 522 989 l 582 989 z "},"K":{"ha":851,"x_min":85,"x_max":876,"o":"m 849 989 l 393 578 l 876 0 l 800 0 l 350 538 l 144 350 l 144 0 l 85 0 l 85 989 l 144 989 l 144 421 l 769 989 l 849 989 z "},"L":{"ha":694,"x_min":85,"x_max":710,"o":"m 710 54 l 710 0 l 85 0 l 85 989 l 146 989 l 146 54 l 710 54 z "},"M":{"ha":1124,"x_min":88,"x_max":1036,"o":"m 1036 989 l 1036 0 l 978 0 l 978 740 q 986 933 978 836 q 964 874 978 914 q 942 817 950 835 l 593 0 l 535 0 l 185 807 q 139 931 182 813 q 146 740 146 771 l 146 0 l 88 0 l 88 989 l 171 989 l 486 256 l 564 63 q 633 236 589 133 q 954 989 861 771 l 1036 989 z "},"N":{"ha":942,"x_min":82,"x_max":844,"o":"m 844 989 l 844 0 l 776 0 l 222 783 q 136 919 168 861 q 140 768 140 882 l 140 0 l 82 0 l 82 989 l 151 989 l 694 219 q 790 71 740 153 q 786 260 786 164 l 785 989 l 844 989 z "},"O":{"ha":1029,"x_min":44,"x_max":985,"o":"m 513 1013 q 853 867 722 1013 q 985 488 985 721 q 854 117 985 258 q 513 -24 724 -24 q 173 119 301 -24 q 44 494 44 261 q 174 869 44 725 q 513 1013 304 1013 m 513 960 q 292 894 386 960 q 151 724 197 828 q 106 497 106 621 q 218 158 106 288 q 513 29 331 29 q 810 157 696 29 q 924 490 924 285 q 809 829 924 699 q 513 960 694 960 z "},"P":{"ha":821,"x_min":92,"x_max":799,"o":"m 92 989 l 476 989 q 688 943 619 989 q 799 715 799 868 q 696 494 799 569 q 493 438 618 438 l 151 438 l 151 0 l 92 0 l 92 989 m 151 936 l 151 489 l 458 489 q 635 522 578 489 q 739 713 739 583 q 651 897 739 840 q 572 930 611 924 q 467 936 532 936 l 151 936 z "},"Q":{"ha":1029,"x_min":44,"x_max":988,"o":"m 988 -7 l 957 -46 l 794 71 q 517 -22 683 -22 q 172 122 300 -22 q 44 488 44 267 q 175 866 44 721 q 515 1011 306 1011 q 853 868 722 1011 q 983 497 983 725 q 944 276 983 379 q 835 103 906 172 l 988 -7 m 789 138 q 922 497 922 283 q 809 829 922 701 q 515 957 696 957 q 219 828 332 957 q 106 490 106 699 q 214 162 106 293 q 517 31 322 31 q 747 106 650 31 l 592 215 l 624 256 l 789 138 z "},"R":{"ha":875,"x_min":89,"x_max":829,"o":"m 89 989 l 496 989 q 701 943 629 989 q 811 726 811 869 q 754 563 811 628 q 601 479 697 497 q 724 434 678 467 q 783 326 769 401 q 796 188 792 282 q 810 47 800 94 q 829 0 814 26 l 763 0 q 749 40 754 13 q 743 100 746 60 q 738 186 740 140 q 735 243 736 232 q 662 414 725 374 q 456 454 599 454 l 149 454 l 149 0 l 89 0 l 89 989 m 149 938 l 149 504 l 447 504 q 538 509 497 504 q 619 528 578 514 q 689 565 661 542 q 734 629 717 589 q 751 724 751 669 q 661 899 751 843 q 476 938 597 938 l 149 938 z "},"S":{"ha":875,"x_min":56,"x_max":818,"o":"m 793 707 l 733 707 q 422 957 718 957 q 218 902 292 957 q 144 750 144 847 q 160 675 144 707 q 200 622 175 643 q 265 585 225 601 q 348 559 306 569 q 447 536 390 549 q 493 526 478 531 q 560 510 540 515 q 623 492 581 506 q 686 468 665 479 q 737 436 707 457 q 781 392 767 415 q 807 335 796 369 q 818 261 818 301 q 719 54 818 129 q 447 -21 621 -21 q 160 67 265 -21 q 56 328 56 154 l 113 328 q 203 103 115 178 q 450 29 292 29 q 678 90 596 29 q 760 258 760 150 q 750 317 760 290 q 727 363 740 343 q 688 399 714 382 q 643 425 663 415 q 588 445 624 435 q 535 460 553 456 q 478 472 517 464 q 428 483 440 481 q 224 542 274 519 q 85 749 85 604 q 176 940 85 869 q 426 1010 267 1010 q 686 935 589 1010 q 793 707 783 860 z "},"T":{"ha":721,"x_min":-21,"x_max":740,"o":"m 740 989 l 740 936 l 390 936 l 390 0 l 331 0 l 331 936 l -21 936 l -21 989 l 740 989 z "},"U":{"ha":933,"x_min":81,"x_max":844,"o":"m 844 989 l 844 338 q 744 74 844 169 q 469 -21 643 -21 q 81 388 81 -21 l 81 989 l 142 989 l 142 385 q 218 120 142 210 q 469 31 294 31 q 712 122 639 31 q 785 385 785 214 l 785 989 l 844 989 z "},"V":{"ha":772,"x_min":-21,"x_max":792,"o":"m 792 989 l 424 0 l 354 0 l -21 989 l 46 989 l 342 197 q 369 117 353 169 q 390 53 386 65 q 438 194 397 82 l 731 989 l 792 989 z "},"W":{"ha":1235,"x_min":-10,"x_max":1240,"o":"m 1240 989 l 957 0 l 889 0 l 657 781 q 615 933 628 878 q 572 778 603 881 l 346 0 l 278 0 l -10 989 l 54 989 l 272 231 q 314 64 301 129 q 356 228 321 107 l 579 989 l 653 989 l 882 221 q 924 64 904 146 q 963 221 936 132 l 1181 989 l 1240 989 z "},"X":{"ha":772,"x_min":-24,"x_max":793,"o":"m 775 989 l 422 508 l 793 0 l 719 0 l 385 463 l 47 0 l -24 0 l 349 508 l -3 989 l 69 989 l 385 551 l 707 989 l 775 989 z "},"Y":{"ha":797,"x_min":-31,"x_max":828,"o":"m 828 989 l 428 413 l 428 0 l 368 0 l 368 413 l -31 989 l 42 989 l 356 533 q 400 464 381 497 l 442 531 l 760 989 l 828 989 z "},"Z":{"ha":746,"x_min":-4,"x_max":746,"o":"m 733 989 l 733 931 l 61 53 l 746 53 l 746 0 l -4 0 l -4 60 l 668 936 q 635 935 653 936 q 581 935 618 935 l 38 935 l 38 989 l 733 989 z "},"[":{"ha":335,"x_min":131,"x_max":321,"o":"m 321 1001 l 321 956 l 185 956 l 185 -210 l 321 -210 l 321 -256 l 131 -256 l 131 1001 l 321 1001 z "},"\\":{"ha":463,"x_min":-14,"x_max":478,"o":"m 478 -12 l 428 -12 l -14 997 l 35 997 l 478 -12 z "},"]":{"ha":335,"x_min":14,"x_max":206,"o":"m 206 1003 l 206 -256 l 14 -256 l 14 -210 l 151 -210 l 151 956 l 14 956 l 14 1003 l 206 1003 z "},"^":{"ha":833,"x_min":161,"x_max":674,"o":"m 161 381 l 390 951 l 444 951 l 674 381 l 619 381 l 417 897 l 215 381 l 161 381 z "},"_":{"ha":694,"x_min":0,"x_max":694,"o":"m 0 -174 l 0 -104 l 694 -104 l 694 -174 l 0 -174 z "},"`":{"ha":232,"x_min":-46,"x_max":194,"o":"m 26 1022 l 194 828 l 142 828 l -46 1022 l 26 1022 z "},"a":{"ha":694,"x_min":42,"x_max":693,"o":"m 693 50 l 693 6 q 636 -3 669 -3 q 572 23 589 -3 q 554 117 554 49 l 554 151 q 443 22 508 63 q 276 -19 378 -19 q 103 33 165 -19 q 42 179 42 86 q 314 397 42 375 q 492 416 457 408 q 540 446 526 424 q 550 519 550 461 q 499 642 550 600 q 349 683 447 683 q 133 493 150 683 l 81 493 q 158 669 88 608 q 354 731 229 731 q 565 654 497 731 q 594 601 585 632 q 605 550 604 569 q 606 489 606 531 l 606 121 q 606 90 606 100 q 612 68 607 81 q 628 50 617 56 q 657 44 639 44 q 693 50 671 44 m 551 403 q 503 376 531 385 q 350 351 460 363 q 185 315 240 340 q 101 185 101 278 q 151 71 101 113 q 286 29 201 29 q 476 100 400 29 q 551 278 551 171 l 551 403 z "},"b":{"ha":772,"x_min":81,"x_max":721,"o":"m 136 989 l 136 543 q 407 735 207 735 q 636 633 551 735 q 721 357 721 531 q 636 81 721 183 q 407 -22 551 -22 q 133 171 200 -22 l 133 0 l 81 0 l 81 989 l 136 989 m 397 686 q 208 597 279 686 q 136 358 136 507 q 208 116 136 207 q 401 25 281 25 q 592 114 521 25 q 664 354 664 203 q 593 597 665 508 q 397 686 521 686 z "},"c":{"ha":721,"x_min":50,"x_max":679,"o":"m 679 250 q 583 51 663 122 q 376 -21 503 -21 q 135 85 221 -21 q 50 353 50 192 q 141 629 50 526 q 383 732 232 732 q 583 669 507 732 q 674 493 660 606 l 617 493 q 543 633 606 581 q 385 685 481 685 q 183 595 258 685 q 107 356 107 506 q 181 117 107 207 q 375 26 254 26 q 544 86 478 26 q 624 250 610 146 l 679 250 z "},"d":{"ha":772,"x_min":47,"x_max":689,"o":"m 689 989 l 689 0 l 636 0 l 636 174 q 538 29 610 81 q 365 -22 465 -22 q 133 78 218 -22 q 47 353 47 179 q 134 630 47 526 q 365 733 221 733 q 532 684 463 733 q 633 547 601 635 l 633 989 l 689 989 m 367 685 q 176 595 247 685 q 106 353 106 506 q 176 113 106 200 q 368 25 246 25 q 563 114 492 25 q 635 356 635 203 q 567 589 635 493 q 367 685 500 685 z "},"e":{"ha":721,"x_min":46,"x_max":681,"o":"m 674 242 q 574 49 654 122 q 369 -24 493 -24 q 134 78 222 -24 q 46 349 46 179 q 135 624 46 518 q 369 731 225 731 q 600 625 519 731 q 681 364 681 519 l 681 344 l 104 344 q 172 117 104 210 q 371 24 239 24 q 533 81 468 24 q 618 242 597 138 l 674 242 m 624 393 q 558 596 624 511 q 369 681 492 681 q 182 600 247 681 q 104 393 117 519 l 624 393 z "},"f":{"ha":335,"x_min":4,"x_max":353,"o":"m 353 990 l 353 940 q 297 944 308 944 q 242 935 264 944 q 208 914 219 925 q 190 877 196 903 q 184 835 185 851 q 183 786 183 819 q 183 772 183 776 l 183 711 l 332 711 l 332 663 l 183 663 l 183 0 l 128 0 l 128 663 l 4 663 l 4 711 l 128 711 l 128 800 q 160 945 128 896 q 294 994 193 994 q 353 990 311 994 z "},"g":{"ha":746,"x_min":46,"x_max":668,"o":"m 668 711 l 668 57 q 628 -146 668 -75 q 360 -271 557 -271 q 160 -215 232 -271 q 79 -53 88 -158 l 136 -53 q 203 -181 142 -137 q 363 -224 264 -224 q 569 -140 507 -224 q 614 56 614 -79 l 614 206 q 347 24 546 24 q 128 118 210 24 q 46 369 46 213 q 131 632 46 533 q 357 731 217 731 q 617 549 544 731 l 617 711 l 668 711 m 358 681 q 172 598 242 681 q 103 376 103 515 q 171 156 103 238 q 354 74 239 74 q 547 162 481 74 q 614 382 614 250 q 544 599 614 517 q 358 681 474 681 z "},"h":{"ha":721,"x_min":81,"x_max":644,"o":"m 136 989 l 136 596 l 135 550 q 230 681 165 632 q 390 729 294 729 q 581 656 517 729 q 644 456 644 582 l 644 0 l 589 0 l 589 447 q 538 618 589 554 q 379 682 488 682 q 231 628 290 682 q 149 488 171 575 q 136 361 136 438 l 136 0 l 81 0 l 81 989 l 136 989 z "},"i":{"ha":233,"x_min":89,"x_max":144,"o":"m 144 989 l 144 849 l 89 849 l 89 989 l 144 989 m 144 711 l 144 0 l 89 0 l 89 711 l 144 711 z "},"j":{"ha":233,"x_min":-50,"x_max":146,"o":"m 146 711 l 146 -75 q 113 -217 146 -175 q -17 -260 79 -260 q -50 -257 -22 -260 l -50 -210 l -22 -210 q 68 -181 46 -210 q 90 -79 90 -153 l 90 711 l 146 711 m 146 989 l 146 850 l 90 850 l 90 989 l 146 989 z "},"k":{"ha":643,"x_min":79,"x_max":671,"o":"m 650 711 l 338 446 l 671 0 l 600 0 l 296 407 l 135 269 l 135 0 l 79 0 l 79 989 l 135 989 l 135 333 q 163 359 144 342 q 192 385 182 376 l 574 711 l 650 711 z "},"l":{"ha":233,"x_min":89,"x_max":144,"o":"m 144 989 l 144 0 l 89 0 l 89 989 l 144 989 z "},"m":{"ha":1106,"x_min":82,"x_max":1029,"o":"m 135 711 l 135 567 q 223 685 164 640 q 367 731 282 731 q 574 578 529 731 q 804 731 646 731 q 970 667 911 731 q 1029 501 1029 604 l 1029 0 l 974 0 l 974 481 q 793 679 974 679 q 647 622 701 679 q 583 438 583 557 l 583 0 l 528 0 l 528 469 q 507 594 528 553 q 356 679 467 679 q 196 606 254 679 q 138 404 138 532 l 138 0 l 82 0 l 82 711 l 135 711 z "},"n":{"ha":721,"x_min":79,"x_max":646,"o":"m 133 711 l 133 554 q 396 731 211 731 q 580 660 514 731 q 646 467 646 590 l 646 0 l 590 0 l 590 439 q 383 681 590 681 q 175 564 243 681 q 135 368 135 493 l 135 0 l 79 0 l 79 711 l 133 711 z "},"o":{"ha":746,"x_min":43,"x_max":703,"o":"m 375 732 q 613 628 524 732 q 703 351 703 525 q 613 80 703 181 q 374 -21 524 -21 q 133 81 222 -21 q 43 356 43 183 q 134 628 43 525 q 375 732 225 732 m 374 683 q 176 593 251 683 q 100 356 100 503 q 174 117 100 206 q 375 28 249 28 q 571 116 497 28 q 644 351 644 204 q 571 593 644 503 q 374 683 497 683 z "},"p":{"ha":772,"x_min":86,"x_max":722,"o":"m 139 711 l 139 542 q 404 731 208 731 q 635 627 549 731 q 722 351 722 524 q 635 78 722 182 q 406 -25 549 -25 q 238 24 307 -25 q 142 161 168 72 l 142 -257 l 86 -257 l 86 711 l 139 711 m 401 683 q 208 595 278 683 q 139 350 139 507 q 165 191 139 263 q 252 71 190 119 q 403 22 314 22 q 592 113 521 22 q 664 351 664 203 q 593 594 664 504 q 401 683 522 683 z "},"q":{"ha":772,"x_min":49,"x_max":686,"o":"m 686 711 l 686 -257 l 631 -257 l 631 163 q 363 -21 561 -21 q 134 81 219 -21 q 49 353 49 182 q 135 630 49 526 q 368 733 222 733 q 633 544 561 733 l 633 711 l 686 711 m 562 597 q 527 641 562 597 q 369 685 492 685 q 176 595 247 685 q 106 351 106 506 q 176 114 106 201 q 368 26 247 26 q 560 115 489 26 q 632 353 632 203 q 562 597 632 508 z "},"r":{"ha":386,"x_min":76,"x_max":408,"o":"m 408 717 l 408 660 l 388 660 q 192 564 264 660 q 142 453 153 513 q 132 307 132 394 l 132 0 l 76 0 l 76 711 l 131 711 l 131 524 q 235 672 169 626 q 408 717 300 717 z "},"s":{"ha":668,"x_min":46,"x_max":617,"o":"m 596 504 l 539 504 q 476 640 531 599 q 319 682 421 682 q 178 644 231 682 q 126 543 126 607 q 130 513 126 526 q 138 488 133 499 q 154 467 143 478 q 172 451 165 457 q 197 437 179 444 q 222 426 214 429 q 253 417 231 422 q 284 408 275 411 q 319 400 293 406 q 353 393 344 394 q 426 376 404 382 q 493 352 449 369 q 559 316 538 335 q 599 264 581 297 q 617 188 617 231 q 540 35 617 93 q 336 -22 463 -22 q 124 47 201 -22 q 46 239 46 115 l 101 239 q 163 81 101 133 q 339 28 225 28 q 499 71 438 28 q 561 185 561 114 q 547 240 561 215 q 515 278 532 264 q 465 306 499 293 q 413 324 431 319 q 358 336 396 328 q 352 338 354 338 q 347 340 350 339 q 340 340 343 340 q 302 349 331 343 q 260 358 274 356 q 219 369 246 361 q 179 383 193 376 q 144 401 165 390 q 113 424 124 411 q 90 454 101 438 q 73 492 78 471 q 68 538 68 513 q 137 679 68 628 q 328 731 206 731 q 523 673 451 731 q 596 504 594 615 z "},"t":{"ha":360,"x_min":0,"x_max":340,"o":"m 340 711 l 340 663 l 188 663 l 188 181 q 188 137 188 149 q 193 103 189 125 q 207 72 197 81 q 235 55 217 63 q 282 47 254 47 q 340 53 306 47 l 340 1 q 274 -4 300 -4 q 204 7 232 -4 q 162 31 176 18 q 140 74 147 44 q 133 124 133 104 q 132 186 132 143 q 132 203 132 197 l 132 663 l 0 663 l 0 711 l 132 711 l 132 935 l 188 935 l 188 711 l 340 711 z "},"u":{"ha":721,"x_min":76,"x_max":636,"o":"m 636 711 l 636 0 l 583 0 l 583 150 q 328 -21 508 -21 q 140 53 204 -21 q 76 253 76 126 l 76 711 l 132 711 l 132 265 q 339 28 132 28 q 519 115 458 28 q 581 325 581 201 l 581 711 l 636 711 z "},"v":{"ha":617,"x_min":-3,"x_max":621,"o":"m 621 711 l 351 0 l 286 0 l -3 711 l 58 711 l 263 211 q 293 128 274 182 q 319 56 313 75 q 376 214 338 108 l 563 711 l 621 711 z "},"w":{"ha":978,"x_min":-6,"x_max":979,"o":"m 979 711 l 750 0 l 686 0 l 518 540 q 489 646 500 597 q 460 542 468 567 l 290 0 l 224 0 l -6 711 l 56 711 l 221 192 q 257 61 224 182 q 275 128 264 83 q 293 194 286 172 l 454 711 l 524 711 l 685 192 q 721 63 693 164 q 756 189 744 157 l 922 711 l 979 711 z "},"x":{"ha":617,"x_min":-10,"x_max":628,"o":"m 600 711 l 343 375 l 628 0 l 556 0 l 307 333 l 57 0 l -10 0 l 272 372 l 13 711 l 85 711 l 307 414 l 533 711 l 600 711 z "},"y":{"ha":617,"x_min":-12,"x_max":621,"o":"m 621 711 l 314 -74 q 283 -150 293 -128 q 250 -203 272 -172 q 197 -244 228 -233 q 119 -256 165 -256 q 65 -253 90 -256 l 65 -203 q 111 -207 88 -207 q 190 -185 161 -207 q 240 -114 219 -164 q 289 1 274 -37 l -12 711 l 50 711 l 285 154 q 317 65 296 128 q 350 161 343 143 l 561 711 l 621 711 z "},"z":{"ha":592,"x_min":13,"x_max":578,"o":"m 557 711 l 557 665 l 75 49 l 578 49 l 578 0 l 13 0 l 13 53 l 489 663 l 47 663 l 47 711 l 557 711 z "},"{":{"ha":463,"x_min":14,"x_max":451,"o":"m 451 -257 q 286 -204 349 -257 q 234 -128 251 -175 q 214 -47 217 -81 q 211 49 211 -12 l 211 146 q 172 296 211 253 q 14 356 133 339 l 14 392 q 172 451 133 408 q 211 601 211 494 l 211 699 q 214 794 211 760 q 234 875 217 828 q 286 951 251 922 q 451 1004 349 1004 l 451 968 q 281 872 324 963 q 260 719 260 829 l 260 663 q 258 578 260 607 q 248 506 257 549 q 222 440 239 463 q 170 399 204 418 q 86 374 136 379 q 170 349 136 368 q 222 307 204 329 q 248 242 239 285 q 258 169 257 199 q 260 85 260 140 l 260 28 q 281 -125 260 -82 q 451 -221 324 -215 l 451 -257 z "},"|":{"ha":308,"x_min":129,"x_max":179,"o":"m 129 -297 l 129 1092 l 179 1092 l 179 -297 l 129 -297 z "},"}":{"ha":463,"x_min":14,"x_max":451,"o":"m 451 356 q 293 296 332 339 q 254 146 254 253 l 254 49 q 251 -47 254 -12 q 231 -128 249 -81 q 179 -204 214 -175 q 14 -257 117 -257 l 14 -221 q 185 -125 142 -215 q 206 28 206 -82 l 206 85 q 207 169 206 140 q 217 242 208 199 q 244 307 226 285 q 295 349 261 329 q 379 374 329 368 q 295 399 329 379 q 244 440 261 418 q 217 506 226 463 q 207 578 208 549 q 206 663 206 607 l 206 719 q 185 872 206 829 q 14 968 142 963 l 14 1004 q 179 951 117 1004 q 231 875 214 922 q 251 794 249 828 q 254 699 254 760 l 254 601 q 293 451 254 494 q 451 392 332 408 l 451 356 z "},"~":{"ha":833,"x_min":58,"x_max":774,"o":"m 774 460 q 719 347 761 393 q 613 300 678 300 q 413 351 561 300 q 355 372 392 358 q 301 390 318 385 q 261 401 283 396 q 221 406 239 406 q 142 372 175 406 q 97 290 108 338 l 58 290 q 113 404 72 358 q 219 450 153 450 q 269 444 242 450 q 313 434 296 439 q 369 416 331 429 q 425 397 408 403 q 475 380 442 392 q 526 363 508 368 q 567 351 543 357 q 611 346 592 346 q 691 379 658 346 q 736 460 724 413 l 774 460 z "},"£":{"ha":772,"x_min":60,"x_max":754,"o":"m 707 649 l 651 649 q 385 926 647 926 q 198 869 269 926 q 126 719 126 813 q 139 643 126 679 q 182 555 151 607 q 219 488 213 503 l 440 488 l 440 454 l 239 454 q 274 307 274 376 q 251 203 274 253 q 203 122 228 153 q 129 43 178 92 q 279 89 218 89 q 396 64 329 89 q 428 52 403 61 q 465 40 453 43 q 497 32 476 36 q 533 28 517 28 q 633 53 581 28 q 724 121 686 79 l 754 79 q 538 -24 657 -24 q 502 -22 519 -24 q 462 -12 485 -19 q 428 -3 439 -6 q 389 11 418 0 q 356 24 360 22 q 258 42 306 42 q 96 -21 183 42 l 60 29 q 174 151 129 79 q 219 299 219 222 q 179 454 219 371 l 68 454 l 68 488 l 158 488 q 134 531 154 494 q 108 579 114 567 q 90 620 103 592 q 74 672 78 649 q 69 722 69 696 q 157 906 69 836 q 386 976 244 976 q 627 892 547 976 q 707 649 707 807 z "},"¤":{"ha":772,"x_min":79,"x_max":693,"o":"m 81 222 l 168 310 q 100 496 100 396 q 168 682 100 596 l 79 771 l 113 803 l 200 714 q 386 782 285 782 q 572 714 492 782 l 661 803 l 693 769 l 606 682 q 674 496 674 592 q 604 310 674 399 l 693 221 l 661 189 l 572 278 q 386 208 488 208 q 201 278 282 208 l 113 190 l 81 222 m 386 733 q 218 664 288 733 q 149 496 149 594 q 219 328 149 397 q 386 258 289 258 q 556 328 486 258 q 625 496 625 397 q 556 664 625 594 q 386 733 486 733 z "},"¦":{"ha":308,"x_min":128,"x_max":181,"o":"m 128 -124 l 128 224 l 181 224 l 181 -124 l 128 -124 m 128 571 l 128 918 l 181 918 l 181 571 l 128 571 z "},"§":{"ha":772,"x_min":69,"x_max":700,"o":"m 621 742 l 565 742 q 371 938 557 938 q 251 899 297 938 q 204 799 204 860 q 216 741 204 767 q 258 691 228 715 q 302 658 289 667 q 358 626 315 650 q 601 476 544 524 q 700 303 700 396 q 658 186 700 239 q 542 108 615 133 q 625 -47 625 38 q 559 -190 625 -135 q 388 -244 493 -244 q 201 -176 268 -244 q 135 13 135 -108 l 190 13 q 243 -143 193 -90 q 388 -196 293 -196 q 517 -155 467 -196 q 567 -50 567 -114 q 510 65 567 19 q 444 112 483 86 q 334 179 406 138 q 249 229 263 221 q 160 288 192 264 q 99 357 129 311 q 69 456 69 403 q 110 574 69 522 q 222 651 150 625 q 149 797 149 713 q 212 933 149 879 q 372 986 275 986 q 554 923 490 986 q 621 742 618 860 m 258 624 q 124 458 124 567 q 136 401 124 428 q 174 353 149 375 q 217 317 199 331 q 268 283 236 303 q 342 240 290 269 q 431 186 393 210 q 503 139 469 163 q 644 296 644 183 q 560 438 644 374 q 326 583 483 497 q 258 624 278 610 z "},"©":{"ha":1111,"x_min":47,"x_max":1064,"o":"m 556 1013 q 915 863 767 1013 q 1064 504 1064 714 q 915 144 1064 293 q 556 -4 765 -4 q 196 146 344 -4 q 47 504 47 296 q 197 864 47 715 q 556 1013 346 1013 m 556 975 q 222 837 360 975 q 85 504 85 699 q 224 171 85 308 q 556 33 363 33 q 890 172 751 33 q 1028 504 1028 310 q 889 838 1028 700 q 556 975 750 975 m 799 393 q 721 263 786 313 q 572 213 656 213 q 374 300 450 213 q 299 510 299 388 q 372 717 299 631 q 561 804 444 804 q 718 749 650 804 q 794 610 786 694 l 750 610 q 686 722 738 681 q 564 764 635 764 q 406 689 464 764 q 349 513 349 614 q 410 329 349 406 q 572 253 471 253 q 690 291 639 253 q 756 393 740 329 l 799 393 z "},"«":{"ha":540,"x_min":92,"x_max":432,"o":"m 432 583 l 432 517 l 310 371 l 432 232 l 432 165 l 269 343 l 269 397 l 432 583 m 251 581 l 251 515 l 132 371 l 251 233 l 251 165 l 92 343 l 92 400 l 251 581 z "},"¬":{"ha":833,"x_min":76,"x_max":756,"o":"m 76 476 l 76 522 l 756 522 l 756 222 l 708 222 l 708 476 l 76 476 z "},"®":{"ha":556,"x_min":22,"x_max":531,"o":"m 276 1013 q 456 938 382 1013 q 531 758 531 863 q 456 578 531 653 q 276 503 381 503 q 97 578 171 503 q 22 758 22 654 q 97 938 22 864 q 276 1013 172 1013 m 276 983 q 117 917 183 983 q 51 758 51 850 q 118 599 51 665 q 276 532 185 532 q 435 599 369 532 q 501 758 501 665 q 435 917 501 851 q 276 983 368 983 m 182 894 l 290 894 q 361 874 332 894 q 390 815 390 854 q 342 751 390 769 q 388 665 388 729 q 396 625 388 639 l 361 625 q 354 657 354 639 q 336 722 354 706 q 265 738 318 738 l 214 738 l 214 625 l 182 625 l 182 894 m 214 767 l 276 767 q 358 818 358 767 q 342 853 358 842 q 313 865 325 864 q 274 865 301 865 l 214 865 l 214 767 z "},"°":{"ha":556,"x_min":82,"x_max":475,"o":"m 278 972 q 417 915 360 972 q 475 775 475 857 q 417 637 475 694 q 278 579 358 579 q 140 637 197 579 q 82 775 82 694 q 140 915 82 857 q 278 972 197 972 m 385 882 q 363 904 385 882 q 278 926 340 926 q 172 882 215 926 q 128 775 128 838 q 172 669 128 713 q 278 625 217 625 q 385 669 340 625 q 429 775 429 714 q 385 882 429 838 z "},"±":{"ha":833,"x_min":72,"x_max":751,"o":"m 388 106 l 388 367 l 72 367 l 72 413 l 388 413 l 388 675 l 436 675 l 436 413 l 751 413 l 751 367 l 436 367 l 436 106 l 388 106 m 72 -6 l 72 40 l 751 40 l 751 -6 l 72 -6 z "},"µ":{"ha":721,"x_min":82,"x_max":640,"o":"m 585 711 l 640 711 l 640 0 l 586 0 l 586 147 q 342 -22 500 -22 q 139 94 204 -22 l 139 -257 l 82 -257 l 82 711 l 139 711 l 139 260 q 189 91 139 154 q 343 28 239 28 q 519 110 450 28 q 572 210 560 158 q 585 336 585 261 l 585 711 z "},"¶":{"ha":833,"x_min":82,"x_max":742,"o":"m 742 946 l 664 946 l 664 -231 l 613 -231 l 613 946 l 424 946 l 424 -231 l 374 -231 l 374 374 q 162 459 242 374 q 82 675 82 544 q 176 910 82 831 q 425 989 271 989 l 742 989 l 742 946 z "},"·":{"ha":386,"x_min":147,"x_max":217,"o":"m 217 493 l 217 351 l 147 351 l 147 493 l 217 493 z "},"»":{"ha":540,"x_min":110,"x_max":449,"o":"m 289 581 l 449 401 l 449 347 l 289 165 l 289 232 l 410 375 l 289 511 l 289 581 m 110 581 l 271 403 l 271 349 l 110 165 l 110 229 l 232 375 l 110 515 l 110 581 z "},"÷":{"ha":833,"x_min":67,"x_max":768,"o":"m 453 511 l 383 511 l 383 650 l 453 650 l 453 511 m 768 351 l 67 351 l 67 397 l 768 397 l 768 351 m 453 99 l 383 99 l 383 238 l 453 238 l 453 99 z "},"ƒ":{"ha":772,"x_min":13,"x_max":676,"o":"m 576 594 l 567 549 l 400 549 l 299 18 q 281 -60 289 -31 q 257 -132 274 -90 q 219 -197 240 -174 q 163 -237 199 -219 q 82 -254 128 -254 q 13 -246 49 -254 l 21 -196 q 81 -201 53 -201 q 119 -197 101 -201 q 152 -181 138 -192 q 177 -159 167 -169 q 197 -129 188 -149 q 212 -97 206 -110 q 224 -60 218 -85 q 232 -24 229 -35 q 240 15 235 -12 q 246 49 244 42 l 342 549 l 189 549 l 199 594 l 350 594 l 376 731 q 399 826 388 789 q 435 899 411 863 q 497 953 458 936 q 593 971 536 971 q 676 964 635 971 l 667 914 q 594 921 614 921 q 484 872 518 921 q 435 736 450 822 l 408 594 l 576 594 z "},"Ё":{"ha":778,"x_min":81,"x_max":753,"o":"m 747 989 l 747 936 l 140 936 l 140 540 l 710 540 l 710 488 l 140 488 l 140 54 l 753 54 l 753 0 l 81 0 l 81 989 l 747 989 m 554 1232 l 554 1089 l 494 1089 l 494 1232 l 554 1232 m 311 1232 l 311 1089 l 253 1089 l 253 1232 l 311 1232 z "},"Ђ":{"ha":978,"x_min":-6,"x_max":931,"o":"m 361 200 l 361 0 l 301 0 l 301 936 l -6 936 l -6 989 l 751 989 l 751 936 l 361 936 l 361 392 q 626 581 431 581 q 766 551 706 581 q 861 474 826 522 q 913 371 896 426 q 931 256 931 315 q 833 -25 931 99 q 589 -171 736 -149 l 589 -118 q 796 16 715 -92 q 876 256 876 124 q 811 449 876 367 q 614 532 746 532 q 429 444 497 532 q 361 200 361 356 z "},"Ѓ":{"ha":694,"x_min":93,"x_max":700,"o":"m 515 1263 l 332 1068 l 282 1068 l 444 1263 l 515 1263 m 700 936 l 153 936 l 153 0 l 93 0 l 93 989 l 700 989 l 700 936 z "},"Є":{"ha":978,"x_min":43,"x_max":924,"o":"m 924 383 q 792 90 910 203 q 496 -22 674 -22 q 167 119 292 -22 q 43 492 43 260 q 170 869 43 725 q 503 1013 297 1013 q 772 924 653 1013 q 908 692 892 836 l 850 692 q 729 887 824 815 q 500 958 635 958 q 226 844 333 958 q 104 543 118 731 l 625 543 l 625 490 l 103 490 q 213 157 104 283 q 497 31 321 31 q 751 129 654 31 q 867 383 849 228 l 924 383 z "},"Ѕ":{"ha":875,"x_min":56,"x_max":818,"o":"m 793 707 l 733 707 q 422 957 718 957 q 218 902 292 957 q 144 750 144 847 q 160 675 144 707 q 200 622 175 643 q 265 585 225 601 q 348 559 306 569 q 447 536 390 549 q 493 526 478 531 q 560 510 540 515 q 623 492 581 506 q 686 468 665 479 q 737 436 707 457 q 781 392 767 415 q 807 335 796 369 q 818 261 818 301 q 719 54 818 129 q 447 -21 621 -21 q 160 67 265 -21 q 56 328 56 154 l 113 328 q 203 103 115 178 q 450 29 292 29 q 678 90 596 29 q 760 258 760 150 q 750 317 760 290 q 727 363 740 343 q 688 399 714 382 q 643 425 663 415 q 588 445 624 435 q 535 460 553 456 q 478 472 517 464 q 428 483 440 481 q 224 542 274 519 q 85 749 85 604 q 176 940 85 869 q 426 1010 267 1010 q 686 935 589 1010 q 793 707 783 860 z "},"І":{"ha":236,"x_min":89,"x_max":149,"o":"m 149 989 l 149 0 l 89 0 l 89 989 l 149 989 z "},"Ї":{"ha":236,"x_min":-32,"x_max":269,"o":"m 146 989 l 146 0 l 86 0 l 86 989 l 146 989 m 269 1232 l 269 1089 l 210 1089 l 210 1232 l 269 1232 m 26 1232 l 26 1089 l -32 1089 l -32 1232 l 26 1232 z "},"Ј":{"ha":668,"x_min":32,"x_max":582,"o":"m 582 989 l 582 268 q 308 -22 582 -22 q 97 53 161 -22 q 32 275 32 128 q 33 313 32 294 l 90 313 l 90 283 q 137 92 90 156 q 308 29 183 29 q 475 92 428 29 q 522 272 522 154 l 522 989 l 582 989 z "},"Љ":{"ha":1389,"x_min":21,"x_max":1363,"o":"m 785 989 l 785 547 l 1053 547 q 1282 477 1201 547 q 1363 276 1363 407 q 1335 135 1363 193 q 1260 49 1307 76 q 1168 11 1213 22 q 1075 0 1124 0 l 725 0 l 725 938 l 333 938 l 313 314 q 302 203 311 254 q 273 100 293 151 q 214 18 253 49 q 121 -12 175 -12 q 21 0 54 -12 l 21 56 q 121 39 53 39 q 184 66 157 39 q 225 138 211 93 q 246 226 239 183 q 254 314 253 269 l 275 989 l 785 989 m 1063 497 l 785 497 l 785 51 l 1071 51 q 1190 75 1140 51 q 1262 137 1239 99 q 1294 208 1285 175 q 1303 275 1303 242 q 1244 431 1303 365 q 1063 497 1186 497 z "},"Њ":{"ha":1389,"x_min":88,"x_max":1363,"o":"m 1075 0 l 696 0 l 696 497 l 147 497 l 147 0 l 88 0 l 88 989 l 147 989 l 147 547 l 696 547 l 696 989 l 756 989 l 756 547 l 1053 547 q 1282 477 1201 547 q 1363 276 1363 407 q 1335 135 1363 193 q 1260 49 1307 76 q 1168 11 1213 22 q 1075 0 1124 0 m 1063 497 l 756 497 l 756 51 l 1071 51 q 1190 75 1140 51 q 1262 137 1239 99 q 1294 208 1285 175 q 1303 275 1303 242 q 1244 431 1303 365 q 1063 497 1186 497 z "},"Ћ":{"ha":978,"x_min":-17,"x_max":904,"o":"m 904 206 l 904 0 l 844 0 l 844 206 q 797 461 844 382 q 603 540 749 540 q 547 535 576 540 q 496 524 518 531 q 447 506 474 517 q 407 488 421 494 q 373 470 393 481 q 350 458 353 460 l 350 0 l 290 0 l 290 936 l -17 936 l -17 989 l 740 989 l 740 936 l 350 936 l 350 515 q 603 592 497 592 q 735 574 681 592 q 824 528 790 557 q 875 447 857 499 q 899 341 893 396 q 904 206 904 286 z "},"Ќ":{"ha":851,"x_min":85,"x_max":876,"o":"m 849 989 l 393 578 l 876 0 l 800 0 l 350 538 l 144 350 l 144 0 l 85 0 l 85 989 l 144 989 l 144 421 l 769 989 l 849 989 m 557 1263 l 374 1068 l 324 1068 l 486 1263 l 557 1263 z "},"Ў":{"ha":772,"x_min":-17,"x_max":793,"o":"m 369 206 l -17 989 l 50 989 l 399 269 l 729 989 l 793 989 l 381 106 q 309 16 354 49 q 215 -17 264 -17 q 158 -8 190 -17 q 111 14 125 1 l 111 76 q 208 38 150 38 q 281 61 246 38 q 331 119 315 85 l 369 206 m 582 1224 q 521 1106 574 1156 q 400 1057 468 1057 q 269 1101 322 1057 q 207 1224 217 1146 l 253 1224 q 399 1103 282 1103 q 489 1137 450 1103 q 536 1224 528 1171 l 582 1224 z "},"Џ":{"ha":931,"x_min":88,"x_max":840,"o":"m 494 0 l 494 -257 l 435 -257 l 435 0 l 88 0 l 88 989 l 147 989 l 147 53 l 781 53 l 781 989 l 840 989 l 840 0 l 494 0 z "},"А":{"ha":824,"x_min":-18,"x_max":840,"o":"m 447 989 l 840 0 l 774 0 l 650 319 l 174 319 l 47 0 l -18 0 l 383 989 l 447 989 m 631 369 l 450 828 q 431 881 443 844 q 414 932 419 917 l 376 832 l 192 369 l 631 369 z "},"Б":{"ha":875,"x_min":88,"x_max":829,"o":"m 88 989 l 765 989 l 765 936 l 147 936 l 147 550 l 514 550 q 746 478 663 550 q 829 276 829 406 q 796 140 829 197 q 710 53 763 82 q 607 13 657 25 q 508 0 557 0 l 88 0 l 88 989 m 524 497 l 147 497 l 147 53 l 490 53 q 703 117 636 53 q 769 275 769 182 q 708 431 769 364 q 524 497 647 497 z "},"В":{"ha":875,"x_min":86,"x_max":829,"o":"m 86 989 l 493 989 q 708 926 621 989 q 796 743 796 864 q 744 595 796 657 q 606 518 692 533 q 767 442 706 507 q 829 275 829 376 q 714 56 829 132 q 468 0 629 0 l 86 0 l 86 989 m 146 938 l 146 538 l 457 538 q 736 736 736 538 q 663 890 736 842 q 476 938 590 938 l 146 938 m 146 488 l 146 53 l 464 53 q 769 276 769 53 q 472 488 769 488 l 146 488 z "},"Г":{"ha":694,"x_min":93,"x_max":700,"o":"m 700 936 l 153 936 l 153 0 l 93 0 l 93 989 l 700 989 l 700 936 z "},"Д":{"ha":931,"x_min":14,"x_max":908,"o":"m 849 -257 l 849 0 l 74 0 l 74 -257 l 14 -257 l 14 53 l 101 53 q 249 989 249 325 l 796 989 l 796 53 l 908 53 l 908 -257 l 849 -257 m 736 938 l 308 938 q 165 53 296 301 l 736 53 l 736 938 z "},"Е":{"ha":778,"x_min":81,"x_max":753,"o":"m 747 989 l 747 936 l 140 936 l 140 540 l 710 540 l 710 488 l 140 488 l 140 53 l 753 53 l 753 0 l 81 0 l 81 989 l 747 989 z "},"Ж":{"ha":1361,"x_min":-22,"x_max":1383,"o":"m 1308 0 l 888 563 l 710 400 l 710 0 l 650 0 l 650 400 l 472 563 l 51 0 l -22 0 l 429 603 l 6 989 l 82 989 l 650 469 l 650 989 l 710 989 l 710 469 l 1278 989 l 1356 989 l 932 603 l 1383 0 l 1308 0 z "},"З":{"ha":875,"x_min":56,"x_max":818,"o":"m 818 275 q 708 60 818 140 q 447 -21 599 -21 q 160 67 265 -21 q 56 328 56 154 l 113 328 q 203 103 115 178 q 450 29 292 29 q 667 99 572 29 q 761 275 761 168 q 468 489 761 492 q 365 488 381 489 l 365 540 l 468 540 q 659 593 581 540 q 738 756 738 646 q 659 908 738 856 q 458 960 581 960 q 146 710 161 960 l 86 710 q 196 938 96 863 q 458 1013 296 1013 q 703 948 610 1013 q 797 756 797 883 q 738 590 797 654 q 596 518 679 526 l 596 515 q 818 275 818 490 z "},"И":{"ha":931,"x_min":89,"x_max":843,"o":"m 783 0 l 783 913 l 779 913 l 163 0 l 89 0 l 89 989 l 149 989 l 149 76 l 153 76 l 768 989 l 843 989 l 843 0 l 783 0 z "},"Й":{"ha":931,"x_min":89,"x_max":843,"o":"m 665 1224 q 604 1106 657 1156 q 483 1057 551 1057 q 353 1101 406 1057 q 290 1224 300 1146 l 336 1224 q 482 1103 365 1103 q 572 1137 533 1103 q 619 1224 611 1171 l 665 1224 m 783 0 l 783 913 l 779 913 l 163 0 l 89 0 l 89 989 l 149 989 l 149 76 l 153 76 l 768 989 l 843 989 l 843 0 l 783 0 z "},"К":{"ha":851,"x_min":85,"x_max":876,"o":"m 849 989 l 393 578 l 876 0 l 800 0 l 350 538 l 144 350 l 144 0 l 85 0 l 85 989 l 144 989 l 144 421 l 769 989 l 849 989 z "},"Л":{"ha":931,"x_min":26,"x_max":843,"o":"m 783 0 l 783 936 l 339 936 l 318 314 q 308 203 317 254 q 278 100 299 151 q 219 18 258 49 q 126 -12 181 -12 q 26 0 60 -12 l 26 56 q 126 39 58 39 q 190 66 163 39 q 231 138 217 93 q 251 226 244 183 q 260 314 258 269 l 281 989 l 843 989 l 843 0 l 783 0 z "},"М":{"ha":1124,"x_min":88,"x_max":1036,"o":"m 1036 989 l 1036 0 l 978 0 l 978 740 q 986 933 978 836 q 964 874 978 914 q 942 817 950 835 l 593 0 l 535 0 l 185 807 q 139 931 182 813 q 146 740 146 771 l 146 0 l 88 0 l 88 989 l 171 989 l 486 256 l 564 63 q 633 236 589 133 q 954 989 861 771 l 1036 989 z "},"Н":{"ha":931,"x_min":89,"x_max":843,"o":"m 843 989 l 843 0 l 783 0 l 783 490 l 149 490 l 149 0 l 89 0 l 89 989 l 149 989 l 149 543 l 783 543 l 783 989 l 843 989 z "},"О":{"ha":1029,"x_min":44,"x_max":985,"o":"m 513 1013 q 853 867 722 1013 q 985 488 985 721 q 854 117 985 258 q 513 -24 724 -24 q 173 119 301 -24 q 44 494 44 261 q 174 869 44 725 q 513 1013 304 1013 m 513 960 q 292 894 386 960 q 151 724 197 828 q 106 497 106 621 q 218 158 106 288 q 513 29 331 29 q 810 157 696 29 q 924 490 924 285 q 809 829 924 699 q 513 960 694 960 z "},"П":{"ha":931,"x_min":89,"x_max":843,"o":"m 843 989 l 843 0 l 783 0 l 783 936 l 149 936 l 149 0 l 89 0 l 89 989 l 843 989 z "},"Р":{"ha":821,"x_min":92,"x_max":799,"o":"m 92 989 l 476 989 q 688 943 619 989 q 799 715 799 868 q 696 494 799 569 q 493 438 618 438 l 151 438 l 151 0 l 92 0 l 92 989 m 151 936 l 151 489 l 458 489 q 635 522 578 489 q 739 713 739 583 q 651 897 739 840 q 572 930 611 924 q 467 936 532 936 l 151 936 z "},"С":{"ha":978,"x_min":54,"x_max":935,"o":"m 935 383 q 803 90 921 203 q 507 -22 685 -22 q 178 119 303 -22 q 54 492 54 260 q 181 869 54 725 q 514 1013 308 1013 q 783 924 664 1013 q 919 692 903 836 l 861 692 q 740 887 835 815 q 511 958 646 958 q 224 830 333 958 q 114 493 114 701 q 222 158 114 285 q 508 31 331 31 q 763 129 665 31 q 878 383 860 228 l 935 383 z "},"Т":{"ha":721,"x_min":-21,"x_max":740,"o":"m 740 989 l 740 936 l 390 936 l 390 0 l 331 0 l 331 936 l -21 936 l -21 989 l 740 989 z "},"У":{"ha":772,"x_min":-17,"x_max":793,"o":"m 369 206 l -17 989 l 50 989 l 399 269 l 729 989 l 793 989 l 381 106 q 309 16 354 49 q 215 -17 264 -17 q 158 -8 190 -17 q 111 14 125 1 l 111 76 q 208 38 150 38 q 281 61 246 38 q 331 119 315 85 l 369 206 z "},"Ф":{"ha":1003,"x_min":40,"x_max":963,"o":"m 531 114 l 531 0 l 472 0 l 472 114 q 165 214 290 114 q 40 497 40 314 q 165 781 40 678 q 472 885 290 885 l 472 989 l 531 989 l 531 885 q 838 781 713 885 q 963 497 963 678 q 838 214 963 314 q 531 114 713 114 m 543 832 l 531 832 l 531 164 q 800 256 699 175 q 901 497 901 336 q 796 742 901 651 q 543 832 690 832 m 472 832 l 460 832 q 207 742 313 832 q 101 497 101 651 q 203 256 101 336 q 472 164 304 175 l 472 832 z "},"Х":{"ha":772,"x_min":-24,"x_max":793,"o":"m 775 989 l 422 508 l 793 0 l 719 0 l 385 463 l 47 0 l -24 0 l 349 508 l -3 989 l 69 989 l 385 551 l 707 989 l 775 989 z "},"Ц":{"ha":951,"x_min":88,"x_max":943,"o":"m 883 -257 l 883 0 l 88 0 l 88 989 l 147 989 l 147 53 l 781 53 l 781 989 l 840 989 l 840 53 l 943 53 l 943 -257 l 883 -257 z "},"Ч":{"ha":875,"x_min":88,"x_max":785,"o":"m 726 0 l 726 489 q 581 447 686 472 q 403 421 475 421 q 160 490 233 421 q 88 746 88 560 l 88 989 l 147 989 l 147 764 q 200 542 147 611 q 397 472 253 472 q 585 496 490 472 q 726 540 679 519 l 726 989 l 785 989 l 785 0 l 726 0 z "},"Ш":{"ha":1389,"x_min":88,"x_max":1311,"o":"m 88 0 l 88 989 l 147 989 l 147 53 l 669 53 l 669 989 l 729 989 l 729 53 l 1253 53 l 1253 989 l 1311 989 l 1311 0 l 88 0 z "},"Щ":{"ha":1422,"x_min":88,"x_max":1414,"o":"m 1354 -257 l 1354 0 l 88 0 l 88 989 l 147 989 l 147 53 l 669 53 l 669 989 l 729 989 l 729 53 l 1251 53 l 1251 989 l 1311 989 l 1311 53 l 1414 53 l 1414 -257 l 1354 -257 z "},"Ъ":{"ha":1081,"x_min":-7,"x_max":1047,"o":"m 1047 276 q 1019 135 1047 193 q 944 49 992 76 q 853 11 897 22 q 760 0 808 0 l 339 0 l 339 936 l -7 936 l -7 989 l 399 989 l 399 550 l 738 550 q 966 478 885 550 q 1047 276 1047 407 m 988 275 q 929 431 988 365 q 747 497 871 497 l 399 497 l 399 53 l 756 53 q 874 76 825 53 q 947 138 924 100 q 978 208 969 175 q 988 275 988 242 z "},"Ы":{"ha":1124,"x_min":88,"x_max":1035,"o":"m 975 0 l 975 989 l 1035 989 l 1035 0 l 975 0 m 508 0 l 88 0 l 88 989 l 147 989 l 147 550 l 486 550 q 715 478 633 550 q 796 276 796 407 q 768 135 796 193 q 693 49 740 76 q 601 11 646 22 q 508 0 557 0 m 496 497 l 147 497 l 147 53 l 504 53 q 623 76 574 53 q 695 138 672 100 q 727 208 718 175 q 736 275 736 242 q 678 431 736 365 q 496 497 619 497 z "},"Ь":{"ha":824,"x_min":88,"x_max":796,"o":"m 508 0 l 88 0 l 88 989 l 147 989 l 147 550 l 486 550 q 715 478 633 550 q 796 276 796 407 q 768 135 796 193 q 693 49 740 76 q 601 11 646 22 q 508 0 557 0 m 496 497 l 147 497 l 147 53 l 504 53 q 623 76 574 53 q 695 138 672 100 q 727 208 718 175 q 736 275 736 242 q 678 431 736 365 q 496 497 619 497 z "},"Э":{"ha":978,"x_min":43,"x_max":924,"o":"m 924 492 q 799 119 924 260 q 471 -22 675 -22 q 175 90 293 -22 q 43 383 57 203 l 100 383 q 215 129 118 228 q 469 31 313 31 q 754 157 646 31 q 864 490 863 283 l 342 490 l 342 543 l 863 543 q 741 844 849 731 q 467 958 633 958 q 238 887 332 958 q 117 692 143 815 l 58 692 q 194 924 75 836 q 464 1013 314 1013 q 797 869 669 1013 q 924 492 924 725 z "},"Ю":{"ha":1361,"x_min":89,"x_max":1317,"o":"m 844 1013 q 1185 867 1054 1013 q 1317 488 1317 721 q 1186 117 1317 258 q 844 -24 1056 -24 q 506 118 635 -24 q 376 490 378 260 l 149 490 l 149 0 l 89 0 l 89 989 l 149 989 l 149 543 l 378 543 q 520 883 393 754 q 844 1013 647 1013 m 844 960 q 624 894 718 960 q 483 724 529 828 q 438 497 438 621 q 550 158 438 288 q 844 29 663 29 q 1142 157 1028 29 q 1256 490 1256 285 q 1141 829 1256 699 q 844 960 1026 960 z "},"Я":{"ha":875,"x_min":-26,"x_max":792,"o":"m 732 0 l 732 454 l 372 454 l 44 0 l -26 0 l 310 463 q 135 547 204 479 q 67 726 67 615 q 151 919 67 849 q 379 989 236 989 l 792 989 l 792 0 l 732 0 m 732 938 l 379 938 q 199 885 271 938 q 126 731 126 833 q 204 561 126 617 q 411 506 282 506 l 732 506 l 732 938 z "},"а":{"ha":694,"x_min":42,"x_max":693,"o":"m 693 50 l 693 6 q 636 -3 669 -3 q 572 23 589 -3 q 554 117 554 49 l 554 151 q 443 22 508 63 q 276 -19 378 -19 q 103 33 165 -19 q 42 179 42 86 q 314 397 42 375 q 492 416 457 408 q 540 446 526 424 q 550 519 550 461 q 499 642 550 600 q 349 683 447 683 q 133 493 150 683 l 81 493 q 158 669 88 608 q 354 731 229 731 q 565 654 497 731 q 594 601 585 632 q 605 550 604 569 q 606 489 606 531 l 606 121 q 606 90 606 100 q 612 68 607 81 q 628 50 617 56 q 657 44 639 44 q 693 50 671 44 m 551 403 q 503 376 531 385 q 350 351 460 363 q 185 315 240 340 q 101 185 101 278 q 151 71 101 113 q 286 29 201 29 q 476 100 400 29 q 551 278 551 171 l 551 403 z "},"б":{"ha":746,"x_min":58,"x_max":700,"o":"m 700 343 q 614 82 700 188 q 379 -24 528 -24 q 193 33 267 -24 q 89 179 119 90 q 58 401 58 267 q 64 533 58 469 q 89 672 69 597 q 139 803 108 747 q 224 901 169 860 q 350 950 278 942 l 486 965 q 539 972 522 969 q 574 985 556 975 q 596 1013 593 994 l 649 1013 q 603 947 642 969 q 482 915 564 925 l 358 901 q 246 857 294 894 q 169 763 197 819 q 125 647 140 706 q 107 525 110 588 l 111 525 q 223 658 150 608 q 393 707 296 707 q 615 602 531 707 q 700 343 700 497 m 647 343 q 576 569 647 476 q 379 661 504 661 q 183 569 254 661 q 111 343 111 476 q 183 115 111 208 q 379 22 254 22 q 576 115 504 22 q 647 343 647 208 z "},"в":{"ha":694,"x_min":74,"x_max":643,"o":"m 378 0 l 74 0 l 74 711 l 378 711 q 554 669 483 711 q 625 536 625 628 q 584 431 625 474 q 474 379 543 389 l 474 378 q 597 324 551 371 q 643 208 643 278 q 567 53 643 107 q 378 0 492 0 m 369 663 l 132 663 l 132 400 l 340 400 q 413 406 378 400 q 486 425 449 411 q 547 467 524 439 q 569 536 569 496 q 510 631 569 600 q 369 663 450 663 m 340 351 l 132 351 l 132 49 l 369 49 q 526 91 465 49 q 586 208 586 133 q 340 351 586 351 z "},"г":{"ha":556,"x_min":83,"x_max":556,"o":"m 139 663 l 139 0 l 83 0 l 83 711 l 556 711 l 556 663 l 139 663 z "},"д":{"ha":746,"x_min":10,"x_max":729,"o":"m 674 -224 l 674 0 l 65 0 l 65 -224 l 10 -224 l 10 49 l 93 49 q 168 318 143 151 q 193 650 193 485 l 193 711 l 632 711 l 632 49 l 729 49 l 729 -224 l 674 -224 m 576 663 l 249 663 l 249 608 q 223 301 249 463 q 151 49 197 140 l 576 49 l 576 663 z "},"е":{"ha":721,"x_min":46,"x_max":681,"o":"m 674 242 q 574 49 654 122 q 369 -24 493 -24 q 134 78 222 -24 q 46 349 46 179 q 135 624 46 518 q 369 731 225 731 q 600 625 519 731 q 681 364 681 519 l 681 344 l 104 344 q 172 117 104 210 q 371 24 239 24 q 533 81 468 24 q 618 242 597 138 l 674 242 m 624 393 q 558 596 624 511 q 369 681 492 681 q 182 600 247 681 q 104 393 117 519 l 624 393 z "},"ж":{"ha":1003,"x_min":-15,"x_max":1018,"o":"m 349 375 l 57 0 l -15 0 l 310 415 l 18 711 l 94 711 l 474 319 l 474 711 l 529 711 l 529 319 l 908 711 l 985 711 l 693 415 l 1018 0 l 946 0 l 654 375 l 529 247 l 529 0 l 474 0 l 474 247 l 349 375 z "},"з":{"ha":657,"x_min":40,"x_max":607,"o":"m 589 544 q 547 435 589 481 q 439 382 506 390 l 439 381 q 561 323 515 374 q 607 200 607 272 q 526 38 607 97 q 331 -21 444 -21 q 118 48 196 -21 q 40 240 40 117 l 96 240 q 331 29 96 29 q 483 77 417 29 q 550 200 550 125 q 489 314 550 276 q 321 351 428 351 l 257 351 l 257 400 l 307 400 q 468 434 401 400 q 535 544 535 468 q 478 647 535 611 q 339 682 422 682 q 115 504 131 682 l 58 504 q 138 672 60 614 q 340 731 215 731 q 519 684 449 731 q 589 544 589 638 z "},"и":{"ha":721,"x_min":78,"x_max":643,"o":"m 588 0 l 588 639 l 586 639 l 146 0 l 78 0 l 78 711 l 133 711 l 133 69 l 135 69 l 574 711 l 643 711 l 643 0 l 588 0 z "},"й":{"ha":721,"x_min":78,"x_max":643,"o":"m 547 989 q 486 872 539 921 q 365 822 433 822 q 234 867 288 822 q 171 989 181 913 l 217 989 q 364 868 247 868 q 454 902 415 868 q 501 989 493 936 l 547 989 m 588 0 l 588 639 l 586 639 l 146 0 l 78 0 l 78 711 l 133 711 l 133 69 l 135 69 l 574 711 l 643 711 l 643 0 l 588 0 z "},"к":{"ha":643,"x_min":79,"x_max":664,"o":"m 664 0 l 593 0 l 290 383 l 135 238 l 135 0 l 79 0 l 79 711 l 135 711 l 135 303 l 567 711 l 643 711 l 331 419 l 664 0 z "},"л":{"ha":746,"x_min":24,"x_max":669,"o":"m 614 0 l 614 663 l 282 663 l 268 282 q 103 -14 258 -14 q 24 0 60 -14 l 24 50 q 101 35 57 35 q 215 288 206 35 l 231 711 l 669 711 l 669 0 l 614 0 z "},"м":{"ha":875,"x_min":78,"x_max":799,"o":"m 133 661 l 133 0 l 78 0 l 78 711 l 167 711 l 439 65 l 710 711 l 799 711 l 799 0 l 743 0 l 743 661 l 740 661 l 468 0 l 410 0 l 136 661 l 133 661 z "},"н":{"ha":721,"x_min":78,"x_max":643,"o":"m 588 0 l 588 354 l 133 354 l 133 0 l 78 0 l 78 711 l 133 711 l 133 401 l 588 401 l 588 711 l 643 711 l 643 0 l 588 0 z "},"о":{"ha":746,"x_min":43,"x_max":703,"o":"m 375 732 q 613 628 524 732 q 703 351 703 525 q 613 80 703 181 q 374 -21 524 -21 q 133 81 222 -21 q 43 356 43 183 q 134 628 43 525 q 375 732 225 732 m 374 683 q 176 593 251 683 q 100 356 100 503 q 174 117 100 206 q 375 28 249 28 q 571 116 497 28 q 644 351 644 204 q 571 593 644 503 q 374 683 497 683 z "},"п":{"ha":721,"x_min":78,"x_max":643,"o":"m 588 665 l 133 665 l 133 0 l 78 0 l 78 711 l 643 711 l 643 0 l 588 0 l 588 665 z "},"р":{"ha":772,"x_min":86,"x_max":722,"o":"m 139 711 l 139 542 q 404 731 208 731 q 635 627 549 731 q 722 351 722 524 q 635 78 722 182 q 406 -25 549 -25 q 238 24 307 -25 q 142 161 168 72 l 142 -257 l 86 -257 l 86 711 l 139 711 m 401 683 q 208 595 278 683 q 139 350 139 507 q 165 191 139 263 q 252 71 190 119 q 403 22 314 22 q 592 113 521 22 q 664 351 664 203 q 593 594 664 504 q 401 683 522 683 z "},"с":{"ha":721,"x_min":50,"x_max":679,"o":"m 679 250 q 583 51 663 122 q 376 -21 503 -21 q 135 85 221 -21 q 50 353 50 192 q 141 629 50 526 q 383 732 232 732 q 583 669 507 732 q 674 493 660 606 l 617 493 q 543 633 606 581 q 385 685 481 685 q 183 595 258 685 q 107 356 107 506 q 181 117 107 207 q 375 26 254 26 q 544 86 478 26 q 624 250 610 146 l 679 250 z "},"т":{"ha":617,"x_min":11,"x_max":606,"o":"m 336 663 l 336 0 l 281 0 l 281 663 l 11 663 l 11 711 l 606 711 l 606 663 l 336 663 z "},"у":{"ha":617,"x_min":-12,"x_max":621,"o":"m 621 711 l 314 -74 q 283 -150 293 -128 q 250 -203 272 -172 q 197 -244 228 -233 q 119 -256 165 -256 q 65 -253 90 -256 l 65 -203 q 111 -207 88 -207 q 190 -185 161 -207 q 240 -114 219 -164 q 289 1 274 -37 l -12 711 l 50 711 l 285 154 q 317 65 296 128 q 350 161 343 143 l 561 711 l 621 711 z "},"ф":{"ha":1064,"x_min":50,"x_max":1014,"o":"m 1014 357 q 942 90 1014 197 q 740 -17 871 -17 q 560 88 626 -17 l 560 -257 l 504 -257 l 504 88 q 324 -17 438 -17 q 122 90 193 -17 q 50 357 50 197 q 119 624 50 518 q 319 731 189 731 q 426 699 376 731 q 504 622 475 668 l 504 989 l 560 989 l 560 622 q 638 699 589 668 q 744 731 688 731 q 944 624 875 731 q 1014 357 1014 518 m 956 357 q 901 591 956 499 q 731 683 847 683 q 613 628 667 683 q 560 499 560 572 l 560 211 q 614 85 560 139 q 732 32 668 32 q 898 126 840 32 q 956 357 956 219 m 504 211 l 504 499 q 451 628 504 572 q 333 683 397 683 q 163 591 217 683 q 108 357 108 499 q 166 126 108 219 q 332 32 224 32 q 450 85 396 32 q 504 211 504 139 z "},"х":{"ha":617,"x_min":-10,"x_max":628,"o":"m 600 711 l 343 375 l 628 0 l 556 0 l 307 333 l 57 0 l -10 0 l 272 372 l 13 711 l 85 711 l 307 414 l 533 711 l 600 711 z "},"ц":{"ha":746,"x_min":76,"x_max":732,"o":"m 676 -224 l 676 0 l 76 0 l 76 711 l 132 711 l 132 49 l 586 49 l 586 711 l 642 711 l 642 49 l 732 49 l 732 -224 l 676 -224 z "},"ч":{"ha":679,"x_min":75,"x_max":600,"o":"m 544 0 l 544 346 q 433 311 507 331 q 303 292 358 292 q 129 346 183 292 q 75 525 75 400 l 75 711 l 131 711 l 131 515 q 174 380 131 418 q 304 342 218 342 q 433 362 360 342 q 544 399 507 382 l 544 711 l 600 711 l 600 0 l 544 0 z "},"ш":{"ha":1067,"x_min":76,"x_max":985,"o":"m 76 0 l 76 711 l 132 711 l 132 49 l 503 49 l 503 711 l 558 711 l 558 49 l 929 49 l 929 711 l 985 711 l 985 0 l 76 0 z "},"щ":{"ha":1096,"x_min":75,"x_max":1075,"o":"m 1019 -224 l 1019 0 l 75 0 l 75 711 l 131 711 l 131 49 l 503 49 l 503 711 l 558 711 l 558 49 l 929 49 l 929 711 l 985 711 l 985 49 l 1075 49 l 1075 -224 l 1019 -224 z "},"ъ":{"ha":849,"x_min":-1,"x_max":810,"o":"m 810 222 q 743 58 810 115 q 565 0 676 0 l 246 0 l 246 663 l -1 663 l -1 711 l 303 711 l 303 428 l 543 428 q 810 222 810 428 m 751 222 q 688 342 751 306 q 529 379 624 379 l 303 379 l 303 49 l 557 49 q 699 96 647 49 q 751 222 751 143 z "},"ы":{"ha":875,"x_min":75,"x_max":799,"o":"m 743 0 l 743 711 l 799 711 l 799 0 l 743 0 m 368 0 l 75 0 l 75 711 l 132 711 l 132 428 l 344 428 q 613 222 613 428 q 546 58 613 115 q 368 0 479 0 m 331 379 l 132 379 l 132 49 l 360 49 q 502 96 450 49 q 554 222 554 143 q 490 342 554 306 q 331 379 426 379 z "},"ь":{"ha":679,"x_min":75,"x_max":640,"o":"m 396 0 l 75 0 l 75 711 l 132 711 l 132 428 l 372 428 q 640 222 640 428 q 574 58 640 115 q 396 0 507 0 m 358 379 l 132 379 l 132 49 l 388 49 q 530 96 478 49 q 582 222 582 143 q 518 342 582 306 q 358 379 454 379 z "},"э":{"ha":721,"x_min":43,"x_max":671,"o":"m 671 353 q 585 85 671 192 q 344 -21 500 -21 q 142 47 221 -21 q 43 238 63 115 l 99 238 q 181 83 115 139 q 346 26 247 26 q 538 115 465 26 q 614 350 611 203 l 232 350 l 232 397 l 613 397 q 528 607 601 529 q 336 685 454 685 q 182 636 243 685 q 106 504 121 588 l 49 504 q 142 672 65 611 q 338 732 218 732 q 580 629 489 732 q 671 353 671 526 z "},"ю":{"ha":1014,"x_min":78,"x_max":969,"o":"m 642 732 q 880 628 790 732 q 969 351 969 525 q 880 80 969 181 q 640 -21 790 -21 q 400 81 489 -21 q 310 354 311 182 l 133 354 l 133 0 l 78 0 l 78 711 l 133 711 l 133 401 l 311 401 q 413 642 324 553 q 642 732 503 732 m 640 683 q 442 593 518 683 q 367 356 367 503 q 441 117 367 206 q 642 28 515 28 q 838 116 764 28 q 911 351 911 204 q 838 593 911 503 q 640 683 764 683 z "},"я":{"ha":694,"x_min":-7,"x_max":613,"o":"m 557 0 l 557 300 l 347 300 q 300 301 315 300 l 65 0 l -7 0 l 235 310 q 106 385 149 328 q 64 511 64 442 q 134 663 64 615 q 319 711 204 711 l 613 711 l 613 0 l 557 0 m 557 663 l 328 663 q 176 624 232 663 q 121 511 121 586 q 181 388 121 426 q 333 349 240 349 l 557 349 l 557 663 z "},"ё":{"ha":721,"x_min":46,"x_max":681,"o":"m 674 242 q 574 49 654 122 q 369 -24 493 -24 q 134 78 222 -24 q 46 349 46 179 q 135 624 46 518 q 369 731 225 731 q 600 625 519 731 q 681 364 681 519 l 681 344 l 104 344 q 172 117 104 210 q 371 24 239 24 q 533 81 468 24 q 618 242 597 138 l 674 242 m 624 393 q 558 596 624 511 q 369 681 492 681 q 182 600 247 681 q 104 393 117 519 l 624 393 m 511 992 l 511 849 l 451 849 l 451 992 l 511 992 m 268 992 l 268 849 l 210 849 l 210 992 l 268 992 z "},"ђ":{"ha":721,"x_min":0,"x_max":660,"o":"m 660 150 q 564 -119 660 0 q 317 -256 468 -237 l 317 -210 q 524 -91 444 -189 q 604 129 604 7 l 604 257 q 401 490 604 490 q 213 408 283 490 q 143 192 143 325 l 143 0 l 88 0 l 88 663 l 0 663 l 0 711 l 88 711 l 88 989 l 142 989 l 142 711 l 507 711 l 507 663 l 142 663 l 142 367 l 144 367 q 244 490 171 444 q 403 536 317 536 q 508 522 463 536 q 581 480 554 507 q 626 426 608 453 q 649 360 643 399 q 658 300 656 322 q 660 247 660 278 l 660 150 z "},"ѓ":{"ha":556,"x_min":79,"x_max":551,"o":"m 428 1022 l 244 828 l 194 828 l 357 1022 l 428 1022 m 135 663 l 135 0 l 79 0 l 79 711 l 551 711 l 551 663 l 135 663 z "},"є":{"ha":721,"x_min":51,"x_max":679,"o":"m 679 238 q 581 47 660 115 q 378 -21 501 -21 q 137 85 222 -21 q 51 353 51 192 q 142 629 51 526 q 385 732 233 732 q 581 672 504 732 q 674 504 657 611 l 617 504 q 540 636 601 588 q 386 685 479 685 q 194 607 268 685 q 110 397 121 529 l 490 397 l 490 350 l 108 350 q 184 115 111 203 q 376 26 257 26 q 541 83 475 26 q 624 238 607 139 l 679 238 z "},"ѕ":{"ha":668,"x_min":46,"x_max":617,"o":"m 596 504 l 539 504 q 476 640 531 599 q 319 682 421 682 q 178 644 231 682 q 126 543 126 607 q 130 513 126 526 q 138 488 133 499 q 154 467 143 478 q 172 451 165 457 q 197 437 179 444 q 222 426 214 429 q 253 417 231 422 q 284 408 275 411 q 319 400 293 406 q 353 393 344 394 q 426 376 404 382 q 493 352 449 369 q 559 316 538 335 q 599 264 581 297 q 617 188 617 231 q 540 35 617 93 q 336 -22 463 -22 q 124 47 201 -22 q 46 239 46 115 l 101 239 q 163 81 101 133 q 339 28 225 28 q 499 71 438 28 q 561 185 561 114 q 547 240 561 215 q 515 278 532 264 q 465 306 499 293 q 413 324 431 319 q 358 336 396 328 q 352 338 354 338 q 347 340 350 339 q 340 340 343 340 q 302 349 331 343 q 260 358 274 356 q 219 369 246 361 q 179 383 193 376 q 144 401 165 390 q 113 424 124 411 q 90 454 101 438 q 73 492 78 471 q 68 538 68 513 q 137 679 68 628 q 328 731 206 731 q 523 673 451 731 q 596 504 594 615 z "},"і":{"ha":233,"x_min":89,"x_max":144,"o":"m 144 989 l 144 849 l 89 849 l 89 989 l 144 989 m 144 711 l 144 0 l 89 0 l 89 711 l 144 711 z "},"ї":{"ha":233,"x_min":-33,"x_max":268,"o":"m 268 992 l 268 849 l 208 849 l 208 992 l 268 992 m 25 992 l 25 849 l -33 849 l -33 992 l 25 992 m 144 711 l 144 0 l 88 0 l 88 711 l 144 711 z "},"ј":{"ha":233,"x_min":-50,"x_max":146,"o":"m 146 711 l 146 -75 q 113 -217 146 -175 q -17 -260 79 -260 q -50 -257 -22 -260 l -50 -210 l -22 -210 q 68 -181 46 -210 q 90 -79 90 -153 l 90 711 l 146 711 m 146 989 l 146 850 l 90 850 l 90 989 l 146 989 z "},"љ":{"ha":1081,"x_min":24,"x_max":1040,"o":"m 1040 218 q 974 56 1040 113 q 796 0 907 0 l 553 0 l 553 663 l 282 663 l 268 282 q 103 -14 258 -14 q 24 0 60 -14 l 24 50 q 101 35 57 35 q 215 288 206 35 l 231 711 l 608 711 l 608 419 l 772 419 q 1040 218 1040 419 m 982 218 q 758 371 982 371 l 608 371 l 608 49 l 788 49 q 931 94 879 49 q 982 218 982 139 z "},"њ":{"ha":1081,"x_min":76,"x_max":1040,"o":"m 796 0 l 524 0 l 524 371 l 132 371 l 132 0 l 76 0 l 76 711 l 132 711 l 132 419 l 524 419 l 524 711 l 579 711 l 579 419 l 772 419 q 1040 218 1040 419 q 974 56 1040 113 q 796 0 907 0 m 758 371 l 579 371 l 579 49 l 788 49 q 931 94 879 49 q 982 218 982 139 q 758 371 982 371 z "},"ћ":{"ha":721,"x_min":0,"x_max":656,"o":"m 656 0 l 600 0 l 600 257 q 401 490 600 490 q 213 409 283 490 q 143 192 143 328 l 143 0 l 88 0 l 88 663 l 0 663 l 0 711 l 88 711 l 88 989 l 142 989 l 142 711 l 507 711 l 507 663 l 142 663 l 142 367 l 144 367 q 407 536 215 536 q 656 247 656 536 l 656 0 z "},"ќ":{"ha":643,"x_min":79,"x_max":664,"o":"m 469 1022 l 286 828 l 236 828 l 399 1022 l 469 1022 m 664 0 l 593 0 l 290 383 l 135 238 l 135 0 l 79 0 l 79 711 l 135 711 l 135 303 l 567 711 l 643 711 l 331 419 l 664 0 z "},"ў":{"ha":617,"x_min":-12,"x_max":621,"o":"m 497 989 q 436 872 489 921 q 315 822 383 822 q 184 867 238 822 q 121 989 131 913 l 167 989 q 314 868 197 868 q 404 902 365 868 q 451 989 443 936 l 497 989 m 621 711 l 314 -74 q 283 -150 293 -128 q 250 -203 272 -172 q 197 -244 228 -233 q 119 -256 165 -256 q 65 -253 90 -256 l 65 -203 q 111 -207 88 -207 q 190 -185 161 -207 q 240 -114 219 -164 q 289 1 274 -37 l -12 711 l 50 711 l 285 154 q 317 65 296 128 q 350 161 343 143 l 561 711 l 621 711 z "},"џ":{"ha":721,"x_min":78,"x_max":643,"o":"m 389 0 l 389 -224 l 333 -224 l 333 0 l 78 0 l 78 711 l 133 711 l 133 47 l 588 47 l 588 711 l 643 711 l 643 0 l 389 0 z "},"Ґ":{"ha":694,"x_min":88,"x_max":694,"o":"m 147 936 l 147 0 l 88 0 l 88 989 l 635 989 l 635 1225 l 694 1225 l 694 936 l 147 936 z "},"ґ":{"ha":556,"x_min":79,"x_max":551,"o":"m 551 935 l 551 663 l 135 663 l 135 0 l 79 0 l 79 711 l 496 711 l 496 935 l 551 935 z "},"–":{"ha":694,"x_min":0,"x_max":694,"o":"m 694 404 l 694 351 l 0 351 l 0 404 l 694 404 z "},"—":{"ha":1389,"x_min":0,"x_max":1389,"o":"m 1389 404 l 1389 351 l 0 351 l 0 404 l 1389 404 z "},"‘":{"ha":283,"x_min":107,"x_max":196,"o":"m 196 961 q 149 831 150 932 l 176 831 l 176 689 l 107 689 l 107 807 q 124 933 107 882 q 196 1008 142 985 l 196 961 z "},"’":{"ha":283,"x_min":88,"x_max":176,"o":"m 176 989 l 176 871 q 159 744 176 796 q 88 669 142 693 l 88 717 q 135 847 133 746 l 107 847 l 107 989 l 176 989 z "},"‚":{"ha":283,"x_min":85,"x_max":174,"o":"m 174 142 l 174 24 q 156 -103 174 -51 q 85 -178 139 -154 l 85 -131 q 132 0 131 -101 l 104 0 l 104 142 l 174 142 z "},"“":{"ha":438,"x_min":97,"x_max":360,"o":"m 360 961 q 313 831 314 932 l 340 831 l 340 689 l 271 689 l 271 807 q 288 933 271 882 q 360 1008 306 985 l 360 961 m 186 961 q 139 831 140 932 l 167 831 l 167 689 l 97 689 l 97 807 q 115 933 97 882 q 186 1008 132 985 l 186 961 z "},"”":{"ha":438,"x_min":75,"x_max":338,"o":"m 164 989 l 164 871 q 147 744 164 796 q 75 669 129 693 l 75 717 q 122 847 121 746 l 94 847 l 94 989 l 164 989 m 338 989 l 338 871 q 320 744 338 796 q 249 669 303 693 l 249 717 q 296 847 294 746 l 268 847 l 268 989 l 338 989 z "},"„":{"ha":438,"x_min":75,"x_max":338,"o":"m 164 142 l 164 24 q 147 -103 164 -51 q 75 -178 129 -154 l 75 -131 q 122 0 121 -101 l 94 0 l 94 142 l 164 142 m 338 142 l 338 24 q 320 -103 338 -51 q 249 -178 303 -154 l 249 -131 q 296 0 294 -101 l 268 0 l 268 142 l 338 142 z "},"†":{"ha":772,"x_min":74,"x_max":699,"o":"m 699 665 l 699 617 l 413 617 l 413 -201 l 358 -201 l 358 617 l 74 617 l 74 665 l 358 665 l 358 989 l 413 989 l 413 665 l 699 665 z "},"‡":{"ha":772,"x_min":74,"x_max":697,"o":"m 697 715 l 697 665 l 413 665 l 413 122 l 697 122 l 697 72 l 413 72 l 413 -201 l 360 -201 l 360 72 l 74 72 l 74 122 l 360 122 l 360 665 l 74 665 l 74 715 l 360 715 l 360 989 l 413 989 l 413 715 l 697 715 z "},"•":{"ha":694,"x_min":100,"x_max":594,"o":"m 347 742 q 522 669 450 742 q 594 494 594 596 q 522 319 594 392 q 347 247 449 247 q 172 320 244 247 q 100 494 100 393 q 173 669 100 597 q 347 742 246 742 z "},"…":{"ha":1389,"x_min":196,"x_max":1190,"o":"m 265 142 l 265 0 l 196 0 l 196 142 l 265 142 m 728 142 l 728 0 l 658 0 l 658 142 l 728 142 m 1190 142 l 1190 0 l 1121 0 l 1121 142 l 1190 142 z "},"‰":{"ha":1492,"x_min":61,"x_max":1438,"o":"m 847 1007 l 196 -43 l 147 -42 l 799 1007 l 847 1007 m 731 454 q 885 393 828 454 q 942 225 942 332 q 887 49 942 111 q 733 -14 832 -14 q 577 47 632 -14 q 522 218 522 107 q 577 392 522 329 q 731 454 632 454 m 1228 454 q 1382 393 1326 454 q 1438 224 1438 332 q 1381 50 1438 114 q 1228 -14 1325 -14 q 1072 47 1128 -14 q 1017 218 1017 108 q 1072 392 1017 329 q 1228 454 1128 454 m 117 919 q 144 950 117 919 q 271 981 172 981 q 426 919 369 981 q 482 747 482 857 q 424 575 482 639 q 269 511 367 511 q 116 573 171 511 q 61 747 61 635 q 117 919 61 857 m 731 413 q 572 215 572 413 q 613 75 572 124 q 732 26 654 26 q 850 78 808 26 q 892 224 892 129 q 849 363 892 313 q 731 413 807 413 m 1228 414 q 1108 363 1151 414 q 1065 219 1065 311 q 1108 77 1065 128 q 1226 26 1150 26 q 1344 78 1303 26 q 1386 224 1386 129 q 1344 364 1386 314 q 1228 414 1303 414 m 269 939 q 152 887 194 939 q 110 742 110 835 q 151 602 110 651 q 269 553 193 553 q 388 604 346 553 q 431 746 431 656 q 388 888 431 838 q 269 939 346 939 z "},"‹":{"ha":360,"x_min":89,"x_max":249,"o":"m 249 582 l 249 513 l 128 371 l 249 233 l 249 165 l 89 344 l 89 400 l 249 582 z "},"›":{"ha":360,"x_min":113,"x_max":272,"o":"m 113 582 l 272 403 l 272 347 l 113 165 l 113 233 l 235 376 l 113 514 l 113 582 z "},"№":{"ha":1319,"x_min":90,"x_max":1264,"o":"m 90 0 l 90 951 l 164 951 l 735 82 l 738 82 l 738 951 l 796 951 l 796 0 l 726 0 l 151 876 l 149 876 l 149 0 l 90 0 m 1206 231 q 1181 203 1206 231 q 1067 175 1156 175 q 928 231 978 175 q 878 376 878 288 q 928 522 878 465 q 1067 578 978 578 q 1206 522 1156 578 q 1256 376 1256 465 q 1206 231 1256 288 m 967 269 q 984 248 967 269 q 1067 226 1001 226 q 1166 269 1132 226 q 1200 376 1200 313 q 1166 483 1200 440 q 1067 526 1132 526 q 967 483 1001 526 q 933 376 933 440 q 967 269 933 313 m 1264 0 l 883 0 l 883 60 l 1264 60 l 1264 0 z "},"™":{"ha":1375,"x_min":147,"x_max":1113,"o":"m 326 494 l 326 950 l 147 950 l 147 989 l 547 989 l 547 950 l 368 950 l 368 494 l 326 494 m 646 494 l 646 989 l 710 989 l 881 551 l 1051 989 l 1113 989 l 1113 494 l 1075 494 l 1075 943 l 899 494 l 861 494 l 685 943 l 685 494 l 646 494 z "},"∆":{"ha":888,"x_min":19,"x_max":869,"o":"m 465 989 l 869 0 l 19 0 l 418 989 l 465 989 m 90 49 l 794 49 l 440 926 l 90 49 z "},"√":{"ha":833,"x_min":33,"x_max":703,"o":"m 703 1090 l 404 -297 l 360 -297 l 113 211 l 51 182 l 33 219 l 135 269 l 375 -229 l 657 1090 l 703 1090 z "},"∞":{"ha":1003,"x_min":65,"x_max":938,"o":"m 501 404 q 528 428 507 408 q 558 456 550 449 q 588 481 567 463 q 620 506 608 499 q 653 526 632 514 q 689 544 674 539 q 724 553 704 549 q 763 558 744 558 q 889 507 840 558 q 938 378 938 456 q 890 245 938 297 q 763 193 842 193 q 723 197 743 193 q 688 207 703 201 q 652 224 672 213 q 620 243 632 236 q 588 267 608 250 q 559 292 567 285 q 529 319 551 299 q 501 344 507 339 q 456 304 489 333 q 406 262 424 275 q 360 230 389 249 q 301 203 331 211 q 240 194 272 194 q 113 245 161 194 q 65 375 65 296 q 113 505 65 451 q 236 558 161 558 q 267 556 251 558 q 296 549 283 553 q 326 537 308 546 q 353 523 343 528 q 381 505 363 518 q 407 487 400 492 q 433 465 414 482 q 456 445 451 449 q 480 424 460 442 q 501 404 500 406 m 532 374 q 571 340 542 365 q 616 301 600 314 q 659 272 632 289 q 711 247 686 254 q 763 239 736 239 q 857 276 822 239 q 892 376 892 314 q 858 474 892 435 q 765 513 824 513 q 706 501 736 513 q 637 460 675 489 q 585 420 599 431 q 532 374 572 410 m 469 374 q 442 398 467 376 q 410 426 418 419 q 378 450 401 432 q 342 476 356 468 q 308 494 329 483 q 269 508 288 504 q 233 513 251 513 q 145 472 179 513 q 111 376 111 432 q 145 278 111 315 q 240 240 179 240 q 327 265 281 240 q 400 312 374 290 q 469 374 426 333 z "},"≈":{"ha":833,"x_min":58,"x_max":774,"o":"m 774 558 q 719 445 761 492 q 613 399 678 399 q 413 450 561 399 q 355 470 392 457 q 301 489 318 483 q 261 499 283 494 q 221 504 239 504 q 142 470 175 504 q 97 389 108 436 l 58 389 q 113 503 72 457 q 219 549 153 549 q 269 543 242 549 q 313 533 296 538 q 369 515 331 528 q 425 496 408 501 q 475 478 442 490 q 526 461 508 467 q 567 450 543 456 q 611 444 592 444 q 691 478 658 444 q 736 558 724 511 l 774 558 m 774 363 q 719 249 761 296 q 613 203 678 203 q 413 254 561 203 q 355 274 392 261 q 301 293 318 288 q 261 303 283 299 q 221 308 239 308 q 142 274 175 308 q 97 193 108 240 l 58 193 q 113 307 72 261 q 219 353 153 353 q 269 347 242 353 q 313 337 296 342 q 369 319 331 332 q 425 300 408 306 q 475 283 442 294 q 526 265 508 271 q 567 254 543 260 q 611 249 592 249 q 691 282 658 249 q 736 363 724 315 l 774 363 z "},"≠":{"ha":833,"x_min":72,"x_max":751,"o":"m 328 269 l 439 478 l 72 478 l 72 524 l 464 524 l 569 722 l 610 701 l 515 524 l 751 524 l 751 478 l 490 478 l 378 269 l 751 269 l 751 224 l 354 224 l 250 28 l 210 49 l 303 224 l 72 224 l 72 269 l 328 269 z "},"≤":{"ha":833,"x_min":72,"x_max":751,"o":"m 72 361 l 72 411 l 751 689 l 751 638 l 133 386 l 751 136 l 751 85 l 72 361 m 72 26 l 751 26 l 751 -19 l 72 -19 l 72 26 z "},"≥":{"ha":833,"x_min":72,"x_max":751,"o":"m 751 361 l 72 85 l 72 136 l 692 386 l 72 638 l 72 689 l 751 411 l 751 361 m 751 26 l 751 -19 l 72 -19 l 72 26 l 751 26 z "},"":{"ha":489,"x_min":96,"x_max":393,"o":"m 393 403 l 393 349 l 96 349 l 96 403 l 393 403 z "},"":{"ha":386,"x_min":0,"x_max":0,"o":""}}}
